<svg id="svg" version="1.1" xmlns="http://www.w3.org/2000/svg" xmlns:xlink="http://www.w3.org/1999/xlink" width="16" height="16" viewBox="0, 0, 400,400.81135902636913"><g id="svgg"><path id="path0" d="M229.967 0.160 C 229.839 0.291,229.209 0.467,228.567 0.550 C 227.004 0.753,225.600 1.232,225.600 1.562 C 225.600 1.709,225.201 1.860,224.713 1.897 C 223.487 1.989,220.376 3.637,220.635 4.057 C 220.823 4.361,219.854 4.558,219.439 4.300 C 219.350 4.245,218.809 4.705,218.237 5.323 C 217.665 5.940,217.017 6.334,216.798 6.199 C 216.579 6.064,216.400 6.244,216.400 6.600 C 216.400 6.956,216.220 7.136,216.000 7.000 C 215.780 6.864,215.600 7.023,215.600 7.353 C 215.600 7.683,215.392 8.081,215.138 8.238 C 214.841 8.422,214.785 8.347,214.982 8.030 C 215.150 7.758,214.640 7.955,213.848 8.468 C 213.057 8.981,212.408 9.625,212.405 9.900 C 212.402 10.175,212.175 10.355,211.900 10.300 C 211.625 10.245,211.449 10.438,211.510 10.730 C 211.570 11.021,211.463 11.162,211.271 11.044 C 210.824 10.768,208.698 12.965,209.061 13.328 C 209.211 13.477,209.023 13.600,208.643 13.600 C 208.263 13.600,208.064 13.780,208.200 14.000 C 208.336 14.220,208.156 14.400,207.800 14.400 C 207.444 14.400,207.264 14.580,207.400 14.800 C 207.536 15.020,207.356 15.200,207.000 15.200 C 206.644 15.200,206.464 15.380,206.600 15.600 C 206.736 15.820,206.644 16.000,206.395 16.000 C 205.785 16.000,204.776 17.042,205.086 17.352 C 205.222 17.489,205.023 17.600,204.643 17.600 C 204.263 17.600,204.064 17.780,204.200 18.000 C 204.336 18.220,204.147 18.400,203.781 18.400 C 203.369 18.400,203.198 18.617,203.333 18.970 C 203.463 19.307,202.975 20.032,202.138 20.747 C 201.361 21.411,200.842 22.145,200.986 22.377 C 201.130 22.610,201.057 22.800,200.824 22.800 C 200.591 22.800,200.400 23.040,200.400 23.332 C 200.400 23.625,199.946 24.108,199.391 24.405 C 198.836 24.702,198.451 25.137,198.537 25.372 C 198.776 26.032,198.041 27.200,197.386 27.200 C 197.064 27.200,196.800 27.532,196.800 27.938 C 196.800 28.344,196.440 29.002,196.000 29.400 C 195.560 29.798,195.200 30.366,195.200 30.662 C 195.200 30.958,195.009 31.200,194.776 31.200 C 194.543 31.200,194.455 31.365,194.580 31.568 C 194.705 31.770,194.523 32.220,194.175 32.568 C 193.827 32.915,193.691 33.205,193.871 33.212 C 194.052 33.219,193.885 33.408,193.500 33.632 C 193.115 33.856,192.800 34.301,192.800 34.620 C 192.800 34.939,192.620 35.200,192.400 35.200 C 192.180 35.200,192.000 35.661,192.000 36.224 C 192.000 36.804,191.827 37.140,191.600 37.000 C 191.372 36.859,191.200 37.204,191.200 37.800 C 191.200 38.396,191.028 38.741,190.800 38.600 C 190.580 38.464,190.400 38.723,190.400 39.176 C 190.400 39.629,190.209 40.000,189.976 40.000 C 189.743 40.000,189.669 40.188,189.811 40.418 C 189.953 40.647,189.783 41.271,189.434 41.804 C 189.086 42.336,188.800 43.138,188.800 43.586 C 188.800 44.034,188.545 44.400,188.233 44.400 C 187.922 44.400,187.576 44.625,187.465 44.900 C 187.304 45.300,187.257 45.300,187.232 44.900 C 187.214 44.625,186.930 44.400,186.600 44.400 C 186.270 44.400,186.000 44.220,186.000 44.000 C 186.000 43.780,185.640 43.600,185.200 43.600 C 184.760 43.600,184.400 43.420,184.400 43.200 C 184.400 42.980,184.062 42.800,183.649 42.800 C 183.236 42.800,182.674 42.530,182.400 42.200 C 182.126 41.870,181.564 41.600,181.151 41.600 C 180.738 41.600,180.400 41.420,180.400 41.200 C 180.400 40.980,180.040 40.800,179.600 40.800 C 179.160 40.800,178.800 40.609,178.800 40.376 C 178.800 40.143,178.635 40.055,178.432 40.180 C 178.230 40.305,177.821 40.181,177.523 39.904 C 177.225 39.627,176.717 39.341,176.394 39.268 C 176.072 39.195,175.713 38.983,175.598 38.797 C 175.483 38.610,175.031 38.490,174.594 38.529 C 174.145 38.569,173.843 38.383,173.900 38.100 C 173.955 37.825,173.640 37.600,173.200 37.600 C 172.760 37.600,172.400 37.420,172.400 37.200 C 172.400 36.980,172.040 36.800,171.600 36.800 C 171.160 36.800,170.800 36.609,170.800 36.376 C 170.800 36.143,170.636 36.054,170.436 36.178 C 169.878 36.523,168.771 35.971,169.065 35.495 C 169.229 35.229,169.014 35.155,168.482 35.295 C 168.018 35.416,167.575 35.326,167.498 35.094 C 167.421 34.863,166.917 34.607,166.379 34.525 C 165.840 34.444,165.340 34.202,165.267 33.988 C 165.193 33.775,164.799 33.600,164.390 33.600 C 163.982 33.600,163.536 33.420,163.400 33.200 C 163.264 32.980,162.713 32.800,162.176 32.800 C 161.639 32.800,161.200 32.620,161.200 32.400 C 161.200 32.180,160.761 32.000,160.224 32.000 C 159.687 32.000,159.136 31.820,159.000 31.600 C 158.864 31.380,158.144 31.200,157.400 31.200 C 156.656 31.200,155.935 31.019,155.798 30.797 C 155.661 30.575,155.124 30.471,154.605 30.565 C 154.024 30.670,153.576 30.513,153.439 30.158 C 153.285 29.757,152.777 29.628,151.785 29.737 C 150.969 29.827,150.137 29.680,149.854 29.396 C 149.062 28.605,136.988 28.659,135.766 29.459 C 135.254 29.795,134.646 29.952,134.415 29.809 C 134.183 29.666,133.711 29.832,133.365 30.178 C 133.019 30.524,132.570 30.705,132.368 30.580 C 132.165 30.455,132.000 30.646,132.000 31.003 C 132.000 31.472,131.776 31.583,131.200 31.400 C 130.741 31.254,130.400 31.328,130.400 31.573 C 130.400 31.808,130.118 32.000,129.774 32.000 C 129.021 32.000,125.106 35.924,125.393 36.389 C 125.504 36.569,125.335 36.816,125.017 36.938 C 124.691 37.063,124.507 37.515,124.595 37.972 C 124.681 38.418,124.554 38.905,124.314 39.053 C 124.033 39.227,123.992 39.136,124.200 38.800 C 124.423 38.439,124.368 38.372,124.022 38.587 C 123.710 38.779,123.606 39.332,123.749 40.045 C 123.904 40.822,123.823 41.162,123.499 41.096 C 123.203 41.037,123.009 41.536,122.993 42.400 C 122.978 43.170,122.757 44.177,122.502 44.639 C 122.151 45.272,122.150 45.590,122.499 45.939 C 122.815 46.255,122.823 46.400,122.525 46.400 C 121.878 46.400,121.971 52.278,122.627 52.822 C 122.911 53.058,123.070 53.636,122.979 54.107 C 122.889 54.577,123.036 55.103,123.307 55.275 C 123.689 55.517,123.682 55.589,123.276 55.594 C 122.988 55.597,122.866 55.783,123.004 56.007 C 123.142 56.230,123.398 56.325,123.571 56.218 C 123.745 56.110,123.837 56.481,123.776 57.042 C 123.691 57.817,123.810 58.005,124.276 57.826 C 124.705 57.661,124.819 57.772,124.657 58.195 C 124.465 58.697,124.924 59.052,125.309 58.700 C 125.370 58.645,125.853 59.005,126.385 59.500 C 126.916 59.995,127.677 60.400,128.075 60.400 C 128.474 60.400,128.800 60.580,128.800 60.800 C 128.800 61.020,129.340 61.200,130.000 61.200 C 130.660 61.200,131.200 61.388,131.200 61.618 C 131.200 61.847,131.425 62.006,131.700 61.970 C 132.797 61.828,134.037 62.017,133.862 62.300 C 133.760 62.465,134.110 62.626,134.640 62.658 C 135.170 62.690,135.917 62.852,136.301 63.019 C 136.686 63.186,137.450 63.396,138.000 63.486 C 138.550 63.576,139.060 63.818,139.133 64.025 C 139.207 64.231,140.062 64.400,141.033 64.400 C 142.005 64.400,142.800 64.588,142.800 64.818 C 142.800 65.047,143.025 65.206,143.300 65.170 C 144.433 65.023,145.232 65.225,145.000 65.600 C 144.856 65.833,145.263 66.000,145.976 66.000 C 146.649 66.000,147.200 66.180,147.200 66.400 C 147.200 66.620,147.875 66.806,148.700 66.813 L 150.200 66.825 149.026 67.700 C 148.380 68.181,147.573 68.616,147.233 68.666 C 146.893 68.716,146.555 68.936,146.481 69.156 C 146.408 69.375,146.113 69.465,145.826 69.355 C 145.538 69.244,145.201 69.420,145.076 69.746 C 144.934 70.115,144.539 70.257,144.024 70.122 C 143.537 69.995,143.200 70.099,143.200 70.377 C 143.200 70.636,143.047 70.752,142.859 70.637 C 142.672 70.521,141.824 70.780,140.975 71.213 C 140.126 71.646,139.196 72.000,138.910 72.000 C 138.624 72.000,138.077 72.159,137.695 72.353 C 137.313 72.548,136.460 72.929,135.800 73.200 C 135.140 73.471,134.287 73.852,133.905 74.047 C 133.523 74.241,132.758 74.400,132.205 74.400 C 131.652 74.400,131.200 74.580,131.200 74.800 C 131.200 75.020,130.761 75.200,130.224 75.200 C 129.687 75.200,129.136 75.380,129.000 75.600 C 128.864 75.820,128.313 76.000,127.776 76.000 C 127.239 76.000,126.800 76.163,126.800 76.363 C 126.800 76.563,125.909 76.954,124.820 77.234 C 123.731 77.513,122.932 77.889,123.044 78.071 C 123.156 78.252,122.964 78.400,122.618 78.400 C 122.272 78.400,121.677 78.560,121.295 78.756 C 120.913 78.952,119.700 79.535,118.600 80.051 C 117.500 80.567,116.454 81.220,116.275 81.503 C 116.097 81.786,115.782 81.912,115.575 81.785 C 115.369 81.657,115.200 81.743,115.200 81.976 C 115.200 82.209,114.720 82.400,114.133 82.400 C 113.547 82.400,113.179 82.512,113.316 82.650 C 113.618 82.952,110.978 84.800,110.244 84.800 C 109.958 84.800,109.398 85.160,109.000 85.600 C 108.602 86.040,108.043 86.400,107.758 86.400 C 107.473 86.400,107.096 86.646,106.920 86.946 C 106.744 87.246,106.009 87.794,105.287 88.163 C 104.566 88.532,103.441 89.393,102.787 90.076 C 102.134 90.759,101.600 91.084,101.600 90.798 C 101.600 90.492,101.292 90.633,100.853 91.139 C 100.442 91.612,99.782 92.000,99.386 92.000 C 98.991 92.000,98.776 92.109,98.909 92.243 C 99.226 92.560,98.291 93.571,97.900 93.334 C 97.735 93.235,97.600 93.354,97.600 93.600 C 97.600 93.846,97.443 93.950,97.250 93.831 C 97.058 93.712,96.439 94.043,95.875 94.566 C 95.311 95.088,94.720 95.400,94.561 95.258 C 94.402 95.116,94.389 95.324,94.532 95.721 C 94.705 96.204,94.640 96.349,94.335 96.160 C 94.084 96.005,93.652 96.187,93.376 96.566 C 93.099 96.944,92.721 97.286,92.536 97.327 C 92.351 97.367,92.249 97.548,92.310 97.730 C 92.370 97.911,92.238 97.947,92.015 97.809 C 91.792 97.671,91.114 98.018,90.509 98.579 C 89.903 99.141,89.261 99.600,89.080 99.600 C 88.900 99.600,88.864 99.780,89.000 100.000 C 89.136 100.220,89.102 100.400,88.924 100.400 C 88.446 100.401,86.213 102.393,86.638 102.440 C 86.837 102.462,86.550 102.613,86.000 102.775 C 85.450 102.938,85.051 103.297,85.112 103.573 C 85.174 103.849,85.015 104.005,84.759 103.920 C 84.230 103.743,71.200 116.581,71.200 117.279 C 71.200 117.529,71.081 117.614,70.935 117.469 C 70.703 117.236,69.287 118.603,66.772 121.486 C 66.348 121.973,66.000 122.552,66.000 122.772 C 66.000 122.992,65.640 123.365,65.200 123.600 C 64.760 123.835,64.400 124.302,64.400 124.638 C 64.400 124.973,64.208 125.129,63.973 124.983 C 63.735 124.836,63.603 124.965,63.673 125.274 C 63.743 125.579,63.035 126.602,62.100 127.546 C 61.165 128.491,60.400 129.519,60.400 129.832 C 60.400 130.144,60.220 130.400,60.000 130.400 C 59.780 130.400,59.600 130.681,59.600 131.024 C 59.600 131.367,59.436 131.546,59.235 131.421 C 59.034 131.297,58.630 131.736,58.337 132.398 C 58.044 133.059,57.669 133.600,57.502 133.600 C 57.336 133.600,57.200 133.881,57.200 134.224 C 57.200 134.567,57.020 134.736,56.800 134.600 C 56.580 134.464,56.400 134.684,56.400 135.088 C 56.400 135.493,56.056 136.071,55.636 136.374 C 55.216 136.676,54.965 137.165,55.078 137.459 C 55.191 137.753,54.995 138.104,54.644 138.239 C 54.292 138.373,54.104 138.645,54.226 138.842 C 54.348 139.039,54.155 139.200,53.798 139.200 C 53.355 139.200,53.189 139.485,53.275 140.100 C 53.348 140.628,53.205 140.963,52.929 140.910 C 52.670 140.860,52.221 141.355,51.932 142.010 C 51.642 142.664,51.269 143.200,51.102 143.200 C 50.936 143.200,50.800 143.560,50.800 144.000 C 50.800 144.440,50.620 144.800,50.400 144.800 C 50.180 144.800,50.000 145.070,50.000 145.400 C 50.000 145.730,49.820 146.000,49.600 146.000 C 49.380 146.000,49.200 146.270,49.200 146.600 C 49.200 146.930,49.020 147.200,48.800 147.200 C 48.580 147.200,48.400 147.560,48.400 148.000 C 48.400 148.440,48.220 148.800,48.000 148.800 C 47.780 148.800,47.600 149.139,47.600 149.554 C 47.600 150.537,46.597 152.464,46.261 152.127 C 46.117 151.984,46.000 152.257,46.000 152.733 C 46.000 153.210,45.820 153.600,45.600 153.600 C 45.380 153.600,45.200 153.872,45.200 154.205 C 45.200 154.538,45.032 155.123,44.826 155.505 C 44.621 155.887,44.217 156.785,43.929 157.500 C 43.640 158.215,43.269 158.800,43.102 158.800 C 42.936 158.800,42.800 159.228,42.800 159.751 C 42.800 160.274,42.522 160.933,42.182 161.215 C 41.842 161.497,41.656 161.969,41.769 162.264 C 41.882 162.559,41.781 162.800,41.545 162.800 C 41.308 162.800,41.222 163.079,41.353 163.421 C 41.508 163.826,41.430 163.942,41.127 163.755 C 40.816 163.563,40.750 163.692,40.925 164.150 C 41.084 164.562,40.965 164.915,40.623 165.046 C 40.281 165.178,40.085 165.760,40.125 166.531 C 40.170 167.415,40.025 167.765,39.645 167.683 C 39.260 167.601,39.158 167.867,39.297 168.593 C 39.421 169.243,39.279 169.740,38.910 169.946 C 38.577 170.133,38.387 170.685,38.467 171.236 C 38.544 171.766,38.335 172.438,38.003 172.730 C 37.568 173.112,37.557 173.178,37.962 172.968 C 38.376 172.753,38.428 172.824,38.162 173.238 C 37.963 173.547,37.795 174.250,37.788 174.800 C 37.781 175.385,37.568 175.757,37.275 175.696 C 36.941 175.626,36.804 176.031,36.863 176.911 C 36.912 177.637,36.788 178.493,36.588 178.815 C 36.388 179.137,36.213 179.873,36.201 180.452 C 36.189 181.030,35.981 181.750,35.741 182.052 C 35.500 182.353,35.325 183.208,35.352 183.951 C 35.379 184.704,35.179 185.386,34.900 185.494 C 34.625 185.599,34.400 186.196,34.400 186.819 C 34.400 187.443,34.203 188.075,33.962 188.223 C 33.722 188.372,33.600 188.887,33.692 189.368 C 33.784 189.849,33.621 190.465,33.329 190.737 C 33.038 191.009,32.800 191.584,32.800 192.016 C 32.800 192.447,32.599 192.800,32.353 192.800 C 32.093 192.800,31.986 193.216,32.097 193.797 C 32.206 194.365,32.054 194.990,31.744 195.246 C 31.445 195.495,31.200 195.946,31.200 196.249 C 31.200 196.552,31.001 196.800,30.757 196.800 C 30.514 196.800,30.421 197.077,30.550 197.415 C 30.685 197.765,30.531 198.128,30.193 198.258 C 29.867 198.383,29.600 198.745,29.600 199.061 C 29.600 199.377,29.159 200.078,28.619 200.617 C 28.080 201.156,27.350 202.207,26.997 202.951 C 26.613 203.759,26.082 204.283,25.677 204.252 C 25.305 204.223,25.043 204.419,25.095 204.686 C 25.150 204.966,24.939 205.075,24.595 204.943 C 24.268 204.817,24.000 204.927,24.000 205.186 C 24.000 205.965,22.903 206.814,22.230 206.556 C 21.829 206.402,21.600 206.533,21.600 206.914 C 21.600 207.515,20.559 208.178,19.793 208.067 C 19.569 208.034,19.209 208.411,18.993 208.904 C 18.722 209.522,18.321 209.761,17.700 209.675 C 17.065 209.587,16.800 209.754,16.800 210.242 C 16.800 210.622,16.686 210.819,16.547 210.680 C 16.408 210.541,15.945 210.871,15.518 211.414 C 15.091 211.956,14.479 212.400,14.158 212.400 C 13.837 212.400,13.474 212.663,13.350 212.985 C 13.227 213.306,12.783 213.679,12.363 213.812 C 11.943 213.945,11.600 214.322,11.600 214.651 C 11.600 214.979,11.420 215.136,11.200 215.000 C 10.980 214.864,10.800 215.044,10.800 215.400 C 10.800 215.756,10.620 215.936,10.400 215.800 C 10.180 215.664,10.000 215.863,10.000 216.243 C 10.000 216.623,9.885 216.818,9.744 216.677 C 9.355 216.289,6.786 219.267,6.900 219.974 C 6.955 220.314,6.632 220.756,6.181 220.956 C 5.201 221.391,4.218 223.186,4.938 223.225 C 5.192 223.239,4.983 223.418,4.474 223.622 C 3.918 223.845,3.590 224.274,3.654 224.697 C 3.711 225.083,3.416 226.030,2.996 226.800 C 2.113 228.421,2.116 228.412,2.050 230.024 C 2.023 230.697,1.856 231.158,1.680 231.049 C 1.504 230.941,1.316 231.506,1.262 232.307 C 1.208 233.107,0.964 234.002,0.720 234.296 C -0.233 235.445,0.123 259.271,1.111 260.513 C 1.325 260.781,1.431 261.417,1.348 261.927 C 1.265 262.437,1.469 263.126,1.802 263.459 C 2.135 263.792,2.310 264.223,2.190 264.416 C 2.071 264.609,2.147 265.090,2.360 265.484 C 2.573 265.878,2.978 266.772,3.259 267.471 C 3.540 268.170,3.912 268.655,4.085 268.548 C 4.354 268.381,4.470 268.903,4.375 269.851 C 4.361 269.988,4.766 270.311,5.275 270.567 C 5.922 270.893,6.160 271.312,6.067 271.961 C 5.984 272.547,6.094 272.789,6.367 272.620 C 6.605 272.473,6.800 272.617,6.800 272.941 C 6.800 273.264,7.340 273.983,8.000 274.539 C 8.660 275.094,9.200 275.658,9.200 275.792 C 9.200 276.265,11.078 277.907,11.926 278.176 C 12.398 278.326,12.742 278.648,12.692 278.892 C 12.641 279.136,13.178 279.710,13.885 280.168 C 14.591 280.625,15.176 281.236,15.185 281.524 C 15.193 281.812,15.361 281.948,15.558 281.826 C 15.755 281.704,16.027 281.892,16.161 282.244 C 16.301 282.608,16.663 282.785,17.003 282.654 C 17.372 282.513,17.600 282.659,17.600 283.036 C 17.600 283.372,17.780 283.536,18.000 283.400 C 18.220 283.264,18.400 283.418,18.400 283.743 C 18.400 284.067,18.940 284.572,19.600 284.864 C 20.260 285.156,20.800 285.531,20.800 285.698 C 20.800 285.864,21.081 286.000,21.424 286.000 C 21.767 286.000,21.937 286.178,21.803 286.395 C 21.668 286.613,21.808 286.695,22.113 286.578 C 22.434 286.455,23.194 286.980,23.911 287.820 C 24.682 288.722,25.339 289.162,25.639 288.976 C 25.945 288.787,26.020 288.844,25.842 289.132 C 25.542 289.618,28.068 292.400,28.810 292.400 C 29.051 292.400,29.136 292.580,29.000 292.800 C 28.864 293.020,28.943 293.200,29.176 293.200 C 29.409 293.200,29.600 293.464,29.600 293.786 C 29.600 294.108,29.960 294.565,30.400 294.800 C 30.851 295.042,31.200 295.638,31.200 296.167 C 31.200 296.770,31.487 297.182,32.000 297.316 C 32.541 297.457,32.800 297.862,32.800 298.563 C 32.800 299.133,32.980 299.600,33.200 299.600 C 33.420 299.600,33.600 299.960,33.600 300.400 C 33.600 300.840,33.746 301.200,33.925 301.200 C 34.104 301.200,34.495 301.822,34.793 302.582 C 35.091 303.342,35.485 303.871,35.668 303.758 C 35.965 303.575,36.069 303.893,35.964 304.664 C 35.944 304.809,36.204 305.082,36.540 305.270 C 36.876 305.459,37.082 305.975,36.997 306.417 C 36.912 306.859,37.012 307.116,37.221 306.987 C 37.429 306.858,37.600 307.123,37.600 307.576 C 37.600 308.068,37.860 308.400,38.247 308.400 C 38.696 308.400,38.830 308.644,38.684 309.200 C 38.569 309.640,38.638 310.000,38.837 310.000 C 39.037 310.000,39.200 310.351,39.200 310.780 C 39.200 311.209,39.425 311.704,39.700 311.880 C 39.975 312.056,40.200 312.470,40.200 312.800 C 40.200 313.130,40.434 313.352,40.719 313.294 C 41.004 313.235,41.190 313.415,41.131 313.694 C 40.997 314.324,42.087 316.800,42.498 316.800 C 42.664 316.800,42.800 317.160,42.800 317.600 C 42.800 318.040,42.984 318.400,43.209 318.400 C 43.433 318.400,43.836 318.895,44.104 319.500 C 44.372 320.105,44.819 320.840,45.099 321.132 C 45.379 321.425,45.505 321.830,45.380 322.032 C 45.255 322.235,45.343 322.400,45.576 322.400 C 45.809 322.400,46.000 322.760,46.000 323.200 C 46.000 323.640,46.180 324.000,46.400 324.000 C 46.620 324.000,46.800 324.360,46.800 324.800 C 46.800 325.240,46.980 325.600,47.200 325.600 C 47.420 325.600,47.600 325.920,47.600 326.312 C 47.600 326.703,47.960 327.283,48.400 327.600 C 48.840 327.917,49.200 328.497,49.200 328.888 C 49.200 329.280,49.380 329.600,49.600 329.600 C 49.820 329.600,50.000 329.960,50.000 330.400 C 50.000 330.840,50.180 331.200,50.400 331.200 C 50.620 331.200,50.800 331.481,50.800 331.824 C 50.800 332.167,50.980 332.336,51.200 332.200 C 51.427 332.060,51.600 332.396,51.600 332.976 C 51.600 333.539,51.780 334.000,52.000 334.000 C 52.220 334.000,52.400 334.270,52.400 334.600 C 52.400 334.930,52.664 335.200,52.987 335.200 C 53.345 335.200,53.485 335.435,53.345 335.800 C 53.218 336.130,53.314 336.400,53.557 336.400 C 53.801 336.400,54.000 336.760,54.000 337.200 C 54.000 337.741,54.267 338.000,54.824 338.000 C 55.277 338.000,55.545 338.165,55.420 338.368 C 55.295 338.570,55.477 339.020,55.825 339.368 C 56.236 339.779,56.288 340.000,55.975 340.000 C 55.709 340.000,55.968 340.374,56.550 340.832 C 57.132 341.290,57.519 341.807,57.412 341.981 C 57.304 342.155,57.752 342.859,58.408 343.545 C 59.064 344.231,59.603 345.109,59.606 345.496 C 59.611 346.035,59.692 346.075,59.951 345.666 C 60.206 345.264,60.345 345.347,60.518 346.006 C 60.666 346.573,60.920 346.773,61.241 346.575 C 61.581 346.365,61.660 346.467,61.493 346.901 C 61.353 347.266,61.495 347.628,61.829 347.756 C 62.147 347.878,62.361 348.208,62.304 348.489 C 62.247 348.770,62.438 348.951,62.730 348.890 C 63.021 348.830,63.145 348.966,63.004 349.193 C 62.715 349.662,63.458 350.515,64.500 350.910 C 64.885 351.056,65.200 351.367,65.200 351.602 C 65.200 351.837,65.561 352.427,66.003 352.914 C 66.445 353.401,67.271 354.385,67.840 355.101 C 68.408 355.817,69.037 356.301,69.236 356.177 C 69.436 356.054,69.600 356.156,69.600 356.405 C 69.600 356.989,70.611 358.000,71.195 358.000 C 71.444 358.000,71.536 358.180,71.400 358.400 C 71.178 358.760,71.703 358.973,72.500 358.847 C 72.665 358.821,72.800 359.081,72.800 359.424 C 72.800 359.767,72.980 359.936,73.200 359.800 C 73.420 359.664,73.600 359.767,73.600 360.030 C 73.600 360.702,75.670 362.404,76.137 362.115 C 76.350 361.984,76.408 362.064,76.266 362.294 C 76.124 362.523,76.681 363.219,77.504 363.841 C 78.327 364.462,79.238 365.203,79.529 365.486 C 79.819 365.768,80.224 366.000,80.429 366.000 C 80.633 366.000,80.800 366.270,80.800 366.600 C 80.800 366.954,81.169 367.203,81.700 367.206 C 82.346 367.211,82.449 367.308,82.066 367.551 C 81.583 367.857,82.778 368.548,83.643 368.462 C 83.776 368.449,84.122 368.880,84.410 369.419 C 84.699 369.959,85.225 370.400,85.579 370.400 C 85.934 370.400,86.483 370.760,86.800 371.200 C 87.117 371.640,87.697 372.000,88.088 372.000 C 88.480 372.000,88.800 372.180,88.800 372.400 C 88.800 372.620,89.146 372.800,89.569 372.800 C 89.992 372.800,90.878 373.340,91.538 374.000 C 92.198 374.660,92.932 375.200,93.169 375.200 C 93.406 375.200,93.600 375.399,93.600 375.643 C 93.600 375.886,93.877 375.979,94.215 375.850 C 94.553 375.720,94.921 375.850,95.032 376.139 C 95.143 376.427,95.856 376.908,96.617 377.207 C 97.377 377.505,98.000 377.915,98.000 378.117 C 98.000 378.320,98.277 378.379,98.615 378.250 C 98.965 378.115,99.328 378.269,99.458 378.607 C 99.583 378.933,100.026 379.200,100.443 379.200 C 100.859 379.200,101.200 379.380,101.200 379.600 C 101.200 379.820,101.560 380.000,102.000 380.000 C 102.440 380.000,102.800 380.180,102.800 380.400 C 102.800 380.620,103.160 380.800,103.600 380.800 C 104.040 380.800,104.400 380.980,104.400 381.200 C 104.400 381.420,104.760 381.600,105.200 381.600 C 105.640 381.600,106.000 381.780,106.000 382.000 C 106.000 382.220,106.330 382.400,106.733 382.400 C 107.137 382.400,107.592 382.525,107.745 382.678 C 107.898 382.831,108.322 383.000,108.686 383.054 C 109.538 383.179,112.958 384.906,113.133 385.300 C 113.207 385.465,113.646 385.600,114.111 385.600 C 114.575 385.600,116.269 386.241,117.876 387.024 C 119.483 387.808,120.958 388.350,121.154 388.229 C 121.349 388.108,121.739 388.285,122.019 388.623 C 122.299 388.960,122.749 389.152,123.018 389.048 C 123.288 388.945,123.844 389.087,124.254 389.364 C 124.664 389.640,125.501 389.834,126.114 389.794 C 126.727 389.755,127.340 389.902,127.476 390.123 C 127.628 390.369,127.507 390.398,127.162 390.198 C 126.829 390.005,126.736 390.020,126.933 390.236 C 127.117 390.436,127.612 390.623,128.033 390.650 C 128.455 390.678,129.081 390.723,129.424 390.750 C 129.788 390.779,129.928 390.992,129.761 391.263 C 129.565 391.581,129.748 391.655,130.344 391.499 C 130.825 391.373,131.451 391.508,131.743 391.800 C 132.034 392.091,132.859 392.289,133.577 392.239 C 134.317 392.188,134.964 392.362,135.071 392.641 C 135.185 392.937,135.809 393.083,136.629 393.007 C 137.382 392.937,137.906 393.029,137.793 393.211 C 137.504 393.679,138.949 394.071,139.784 393.751 C 140.191 393.595,140.618 393.705,140.810 394.017 C 140.992 394.310,141.897 394.589,142.822 394.636 C 143.748 394.683,144.616 394.878,144.752 395.070 C 144.889 395.261,145.630 395.476,146.400 395.547 C 147.170 395.618,147.986 395.828,148.212 396.014 C 148.439 396.200,149.405 396.342,150.359 396.328 C 151.313 396.315,152.208 396.483,152.347 396.701 C 152.486 396.919,153.578 397.118,154.773 397.143 C 155.968 397.168,157.048 397.326,157.173 397.494 C 157.427 397.836,157.569 397.855,160.424 397.940 C 161.537 397.973,162.352 398.154,162.236 398.341 C 162.120 398.529,163.220 398.703,164.681 398.728 C 166.141 398.753,167.440 398.928,167.568 399.118 C 167.696 399.307,169.312 399.482,171.161 399.506 C 173.010 399.531,174.630 399.723,174.761 399.935 C 175.363 400.904,228.445 400.897,229.044 399.928 C 229.176 399.715,229.492 399.744,229.800 400.000 C 230.166 400.304,230.409 400.310,230.588 400.019 C 230.731 399.789,232.151 399.600,233.744 399.600 C 235.337 399.600,236.839 399.401,237.082 399.158 C 237.325 398.915,238.537 398.728,239.776 398.743 C 241.124 398.759,241.933 398.616,241.791 398.385 C 241.650 398.158,242.369 398.000,243.543 398.000 C 244.761 398.000,245.612 397.806,245.735 397.500 C 245.884 397.131,245.945 397.144,245.968 397.549 C 245.992 397.951,246.138 397.983,246.515 397.670 C 246.799 397.435,247.789 397.198,248.715 397.143 C 249.642 397.088,250.400 396.899,250.400 396.722 C 250.400 396.545,251.199 396.400,252.176 396.400 C 253.153 396.400,254.064 396.220,254.200 396.000 C 254.336 395.780,255.045 395.600,255.775 395.600 C 256.505 395.600,257.338 395.316,257.627 394.968 C 257.933 394.599,258.537 394.409,259.076 394.512 C 259.584 394.610,260.000 394.534,260.000 394.345 C 260.000 394.155,260.459 394.000,261.020 394.000 C 261.581 394.000,262.565 393.728,263.208 393.396 C 263.850 393.064,264.606 392.839,264.888 392.896 C 265.170 392.953,265.367 392.811,265.326 392.579 C 265.286 392.347,265.791 392.195,266.453 392.241 C 267.189 392.292,267.740 392.102,267.874 391.750 C 268.002 391.418,268.388 391.269,268.791 391.397 C 269.174 391.519,269.699 391.363,269.958 391.050 C 270.217 390.738,270.758 390.569,271.160 390.674 C 271.585 390.785,271.988 390.608,272.125 390.251 C 272.263 389.891,272.699 389.703,273.180 389.796 C 273.631 389.883,274.000 389.784,274.000 389.577 C 274.000 389.370,274.428 389.200,274.951 389.200 C 275.474 389.200,276.117 388.941,276.380 388.624 C 276.643 388.307,277.092 388.137,277.378 388.247 C 277.663 388.356,278.009 388.154,278.146 387.798 C 278.282 387.441,278.572 387.259,278.788 387.393 C 279.005 387.526,280.002 387.178,281.005 386.618 C 282.008 386.058,283.182 385.600,283.614 385.600 C 284.046 385.600,284.400 385.420,284.400 385.200 C 284.400 384.980,284.771 384.800,285.224 384.800 C 285.677 384.800,285.936 384.620,285.800 384.400 C 285.664 384.180,285.913 384.000,286.353 384.000 C 286.793 384.000,287.264 383.820,287.400 383.600 C 287.536 383.380,287.997 383.200,288.424 383.200 C 288.851 383.200,289.200 383.020,289.200 382.800 C 289.200 382.580,289.560 382.400,290.000 382.400 C 290.440 382.400,290.800 382.220,290.800 382.000 C 290.800 381.780,291.160 381.600,291.600 381.600 C 292.040 381.600,292.401 381.465,292.403 381.300 C 292.407 380.941,294.344 380.000,295.080 380.000 C 295.366 380.000,295.600 379.820,295.600 379.600 C 295.600 379.380,295.878 379.200,296.217 379.200 C 296.556 379.200,297.220 378.840,297.692 378.400 C 298.164 377.960,298.787 377.600,299.075 377.600 C 299.364 377.600,299.600 377.420,299.600 377.200 C 299.600 376.980,299.883 376.800,300.229 376.800 C 300.574 376.800,301.129 376.528,301.461 376.196 C 301.793 375.864,302.230 375.695,302.432 375.820 C 302.635 375.945,302.800 375.772,302.800 375.436 C 302.800 375.031,303.024 374.911,303.466 375.081 C 303.913 375.252,304.036 375.183,303.842 374.868 C 303.668 374.587,303.802 374.400,304.176 374.400 C 304.519 374.400,304.890 374.400,305.000 374.400 C 305.110 374.400,305.560 374.040,306.000 373.600 C 306.440 373.160,307.070 372.800,307.400 372.800 C 307.730 372.800,307.955 372.575,307.900 372.300 C 307.844 372.021,308.109 371.852,308.500 371.918 C 308.885 371.982,309.200 371.847,309.200 371.618 C 309.200 371.388,309.404 371.200,309.654 371.200 C 309.904 371.200,310.495 370.782,310.969 370.272 C 311.442 369.761,312.048 369.416,312.315 369.505 C 312.582 369.594,312.800 369.401,312.800 369.076 C 312.800 368.504,313.869 367.800,314.521 367.944 C 314.943 368.036,316.000 366.970,316.000 366.452 C 316.000 366.229,316.208 365.919,316.462 365.762 C 316.733 365.594,316.816 365.651,316.661 365.901 C 316.489 366.180,316.730 366.169,317.365 365.869 C 317.897 365.618,318.246 365.275,318.142 365.107 C 318.038 364.938,318.205 364.800,318.512 364.800 C 318.820 364.800,319.281 364.340,319.537 363.777 C 319.794 363.215,320.182 362.865,320.401 363.001 C 320.809 363.253,322.250 362.438,322.346 361.900 C 322.376 361.735,322.458 361.645,322.529 361.700 C 322.839 361.941,324.026 360.366,323.805 360.008 C 323.666 359.783,323.813 359.707,324.142 359.833 C 324.504 359.972,325.573 359.209,326.954 357.829 C 328.180 356.603,329.289 355.600,329.420 355.600 C 329.868 355.600,330.762 354.495,330.514 354.248 C 330.378 354.111,330.568 354.000,330.937 354.000 C 331.305 354.000,332.170 353.505,332.859 352.900 C 335.694 350.409,337.150 348.883,336.915 348.649 C 336.779 348.512,336.967 348.400,337.333 348.400 C 337.700 348.400,338.000 348.100,338.000 347.733 C 338.000 347.367,338.111 347.178,338.248 347.314 C 338.660 347.727,339.673 346.443,339.361 345.903 C 339.202 345.626,339.221 345.535,339.403 345.701 C 339.765 346.029,341.200 344.909,341.200 344.298 C 341.200 344.091,342.100 343.039,343.200 341.962 C 344.300 340.885,345.200 339.733,345.200 339.402 C 345.200 339.071,345.391 338.800,345.624 338.800 C 345.857 338.800,345.936 338.620,345.800 338.400 C 345.664 338.180,345.749 338.000,345.989 338.000 C 346.229 338.000,346.589 337.595,346.788 337.100 C 347.002 336.567,347.165 336.445,347.188 336.800 C 347.210 337.130,347.575 336.680,348.000 335.800 C 348.425 334.920,348.779 334.369,348.786 334.576 C 348.811 335.258,349.974 333.417,349.987 332.676 C 349.994 332.278,350.180 332.064,350.400 332.200 C 350.620 332.336,350.800 332.167,350.800 331.824 C 350.800 331.481,350.980 331.200,351.200 331.200 C 351.420 331.200,351.600 330.964,351.600 330.675 C 351.600 330.387,351.960 329.764,352.400 329.292 C 352.840 328.820,353.200 328.156,353.200 327.817 C 353.200 327.478,353.380 327.200,353.600 327.200 C 353.820 327.200,354.000 326.906,354.000 326.547 C 354.000 326.188,354.360 325.582,354.800 325.200 C 355.240 324.818,355.638 324.045,355.685 323.482 C 355.732 322.919,355.912 322.545,356.085 322.652 C 356.258 322.760,356.400 322.660,356.400 322.431 C 356.400 322.203,357.038 321.018,357.818 319.799 C 358.598 318.580,359.134 317.417,359.010 317.216 C 358.885 317.014,359.023 316.703,359.316 316.525 C 359.608 316.346,360.429 314.940,361.140 313.400 C 361.851 311.860,362.605 310.287,362.816 309.905 C 363.027 309.523,363.200 308.938,363.200 308.605 C 363.200 308.272,363.391 308.000,363.624 308.000 C 363.857 308.000,363.929 307.809,363.784 307.575 C 363.640 307.341,363.827 306.812,364.200 306.400 C 364.573 305.988,364.772 305.478,364.641 305.267 C 364.511 305.056,364.685 304.776,365.028 304.645 C 365.370 304.513,365.548 304.239,365.422 304.035 C 365.296 303.831,365.482 303.375,365.835 303.022 C 366.189 302.669,366.376 302.114,366.251 301.790 C 366.115 301.435,366.259 301.200,366.613 301.200 C 366.936 301.200,367.200 300.851,367.200 300.424 C 367.200 299.997,367.385 299.533,367.611 299.393 C 367.836 299.254,367.971 298.838,367.911 298.470 C 367.845 298.075,368.026 297.848,368.351 297.917 C 368.727 297.997,368.834 297.775,368.689 297.217 C 368.548 296.680,368.668 296.400,369.037 296.400 C 369.347 296.400,369.600 296.080,369.600 295.688 C 369.600 295.297,369.960 294.717,370.400 294.400 C 370.840 294.083,371.200 293.503,371.200 293.112 C 371.200 292.720,371.368 292.400,371.573 292.400 C 371.778 292.400,372.060 292.040,372.200 291.600 C 372.340 291.160,372.712 290.800,373.027 290.800 C 373.342 290.800,373.600 290.524,373.600 290.187 C 373.600 289.851,373.911 289.456,374.291 289.310 C 375.023 289.029,377.600 286.595,377.600 286.185 C 377.600 286.052,377.870 285.673,378.200 285.343 C 378.530 285.013,378.800 284.886,378.800 285.060 C 378.800 285.235,379.080 284.978,379.423 284.489 C 379.765 284.000,380.311 283.600,380.635 283.600 C 380.959 283.600,381.769 282.980,382.435 282.221 C 383.156 281.401,383.879 280.932,384.223 281.064 C 384.568 281.196,384.800 281.044,384.800 280.686 C 384.800 280.184,385.582 279.574,386.404 279.435 C 386.988 279.336,389.267 277.664,389.236 277.357 C 389.216 277.161,389.387 277.000,389.615 277.000 C 389.843 277.000,390.178 276.760,390.359 276.466 C 390.541 276.172,390.849 275.972,391.045 276.021 C 391.240 276.070,391.622 275.680,391.894 275.155 C 392.166 274.630,392.391 274.372,392.394 274.581 C 392.397 274.791,392.715 274.545,393.100 274.034 C 393.485 273.523,394.115 272.766,394.500 272.353 C 394.885 271.939,395.200 271.330,395.200 271.000 C 395.200 270.670,395.481 270.400,395.824 270.400 C 396.167 270.400,396.345 270.235,396.220 270.032 C 396.095 269.830,396.276 269.381,396.622 269.035 C 396.968 268.689,397.138 268.223,397.000 268.000 C 396.862 267.777,397.030 267.312,397.374 266.968 C 397.719 266.624,398.000 265.816,398.000 265.171 C 398.000 264.527,398.159 264.000,398.353 264.000 C 398.547 264.000,398.716 263.267,398.728 262.371 C 398.741 261.475,398.920 260.530,399.127 260.271 C 399.970 259.216,400.136 229.578,399.300 229.300 C 399.025 229.208,398.800 228.598,398.800 227.943 C 398.800 227.288,398.639 226.852,398.442 226.974 C 398.012 227.240,397.503 226.081,397.822 225.564 C 397.946 225.364,397.857 225.200,397.624 225.200 C 397.391 225.200,397.200 224.927,397.200 224.594 C 397.200 224.261,396.615 223.436,395.900 222.760 C 395.185 222.085,394.870 221.651,395.200 221.796 C 395.530 221.941,395.451 221.776,395.024 221.430 C 394.596 221.083,394.369 220.800,394.518 220.800 C 394.666 220.800,393.955 219.990,392.936 219.000 C 391.917 218.010,390.919 217.200,390.718 217.200 C 390.517 217.200,390.435 217.065,390.534 216.900 C 390.634 216.735,390.465 216.368,390.158 216.084 C 389.851 215.801,389.600 215.659,389.600 215.771 C 389.600 215.882,389.050 215.435,388.377 214.777 C 387.704 214.120,386.980 213.689,386.767 213.820 C 386.554 213.952,386.430 213.821,386.490 213.530 C 386.551 213.238,386.375 213.045,386.100 213.100 C 385.825 213.155,385.600 212.973,385.600 212.696 C 385.600 212.097,384.107 211.087,383.644 211.373 C 383.466 211.483,383.086 211.135,382.800 210.600 C 382.514 210.065,382.134 209.717,381.955 209.828 C 381.777 209.938,380.957 209.392,380.132 208.614 C 379.308 207.836,378.480 207.200,378.293 207.200 C 378.106 207.200,378.063 207.022,378.197 206.805 C 378.332 206.587,378.191 206.505,377.885 206.623 C 377.579 206.740,377.094 206.554,376.808 206.209 C 376.360 205.670,376.393 205.619,377.043 205.844 C 377.460 205.988,377.035 205.527,376.100 204.819 C 375.165 204.110,374.400 203.388,374.400 203.214 C 374.400 203.039,373.680 202.155,372.800 201.248 C 371.920 200.341,371.200 199.329,371.200 199.000 C 371.200 198.670,370.947 198.400,370.637 198.400 C 370.272 198.400,370.148 198.120,370.284 197.600 C 370.401 197.153,370.296 196.800,370.047 196.800 C 369.801 196.800,369.600 196.459,369.600 196.043 C 369.600 195.626,369.333 195.183,369.007 195.058 C 368.680 194.933,368.511 194.577,368.630 194.267 C 368.749 193.957,368.588 193.604,368.272 193.483 C 367.900 193.340,367.768 192.902,367.896 192.232 C 368.006 191.658,367.909 191.200,367.678 191.200 C 367.333 191.200,366.233 188.667,366.289 188.000 C 366.298 187.890,366.070 187.464,365.783 187.054 C 365.495 186.644,365.356 186.059,365.473 185.754 C 365.590 185.449,365.525 185.200,365.328 185.200 C 365.131 185.200,364.928 184.615,364.877 183.900 C 364.825 183.185,364.503 182.390,364.161 182.133 C 363.818 181.877,363.580 181.337,363.631 180.933 C 363.741 180.060,363.228 178.716,362.629 178.306 C 362.357 178.120,362.420 178.005,362.800 177.993 C 363.271 177.979,363.241 177.854,362.660 177.414 C 362.253 177.106,362.028 176.677,362.161 176.463 C 362.498 175.917,361.997 174.755,361.544 175.034 C 361.337 175.162,361.253 174.821,361.354 174.263 C 361.466 173.645,361.326 173.180,360.987 173.050 C 360.685 172.935,360.509 172.471,360.596 172.020 C 360.683 171.569,360.584 171.200,360.377 171.200 C 360.170 171.200,360.000 170.763,360.000 170.229 C 360.000 169.694,359.761 169.018,359.468 168.725 C 359.175 168.432,359.010 167.970,359.101 167.697 C 359.192 167.424,359.001 167.099,358.677 166.974 C 358.344 166.847,358.171 166.434,358.277 166.026 C 358.390 165.594,358.050 164.887,357.433 164.270 C 356.863 163.700,356.400 162.780,356.400 162.218 C 356.400 161.658,356.220 161.200,356.000 161.200 C 355.780 161.200,355.600 160.660,355.600 160.000 C 355.600 159.340,355.420 158.800,355.200 158.800 C 354.980 158.800,354.800 158.440,354.800 158.000 C 354.800 157.560,354.620 157.200,354.400 157.200 C 354.180 157.200,354.000 156.874,354.000 156.475 C 354.000 156.077,353.633 155.357,353.184 154.875 C 352.736 154.394,352.563 154.000,352.800 154.000 C 353.037 154.000,352.864 153.606,352.416 153.125 C 351.967 152.643,351.600 151.822,351.600 151.301 C 351.600 150.771,351.424 150.462,351.200 150.600 C 350.975 150.739,350.800 150.418,350.800 149.866 C 350.800 149.327,350.533 148.783,350.207 148.658 C 349.869 148.528,349.715 148.165,349.850 147.815 C 349.979 147.477,349.886 147.200,349.643 147.200 C 349.399 147.200,349.200 146.840,349.200 146.400 C 349.200 145.960,349.020 145.600,348.800 145.600 C 348.580 145.600,348.400 145.259,348.400 144.843 C 348.400 144.426,348.128 143.981,347.796 143.854 C 347.464 143.727,347.223 143.482,347.260 143.311 C 347.388 142.716,346.714 141.606,346.358 141.826 C 346.161 141.948,346.000 141.587,346.000 141.024 C 346.000 140.461,345.820 140.000,345.600 140.000 C 345.380 140.000,345.200 139.717,345.200 139.371 C 345.200 138.632,344.259 137.600,343.586 137.600 C 343.321 137.600,343.220 137.324,343.356 136.970 C 343.489 136.624,343.373 136.106,343.099 135.819 C 342.538 135.233,341.806 134.199,341.085 132.975 C 339.483 130.254,338.672 129.232,338.299 129.462 C 338.056 129.613,337.994 129.533,338.153 129.276 C 338.305 129.030,338.096 128.496,337.690 128.090 C 337.283 127.683,337.021 127.136,337.108 126.875 C 337.195 126.614,336.982 126.400,336.633 126.400 C 336.285 126.400,336.000 126.119,336.000 125.776 C 336.000 125.402,335.813 125.268,335.532 125.442 C 335.219 125.636,335.147 125.515,335.315 125.076 C 335.464 124.688,335.314 124.280,334.948 124.075 C 334.607 123.884,334.322 123.564,334.313 123.364 C 334.272 122.373,333.893 121.926,333.550 122.466 C 333.307 122.850,333.211 122.751,333.206 122.113 C 333.202 121.450,333.031 121.290,332.534 121.481 C 332.092 121.650,331.964 121.582,332.153 121.276 C 332.536 120.657,331.717 119.200,330.986 119.200 C 330.664 119.200,330.445 118.975,330.500 118.700 C 330.555 118.425,330.330 118.260,330.000 118.333 C 329.670 118.407,329.527 118.339,329.683 118.184 C 329.838 118.028,329.478 117.259,328.883 116.474 C 327.379 114.493,326.090 113.243,325.824 113.509 C 325.701 113.632,325.600 113.433,325.600 113.067 C 325.600 112.700,325.429 112.400,325.219 112.400 C 325.010 112.400,324.250 111.545,323.531 110.500 C 322.047 108.341,318.940 105.193,318.616 105.518 C 318.497 105.636,318.400 105.433,318.400 105.067 C 318.400 104.700,318.119 104.400,317.776 104.400 C 317.433 104.400,317.264 104.220,317.400 104.000 C 317.536 103.780,317.337 103.600,316.957 103.600 C 316.577 103.600,316.375 103.492,316.507 103.359 C 316.846 103.021,307.266 93.600,306.584 93.600 C 306.449 93.600,305.788 93.050,305.116 92.378 C 304.444 91.705,303.657 91.246,303.367 91.357 C 303.014 91.493,302.923 91.345,303.090 90.910 C 303.276 90.426,303.170 90.326,302.674 90.516 C 302.309 90.656,302.052 90.593,302.105 90.375 C 302.157 90.158,301.660 89.669,301.001 89.290 C 300.342 88.910,299.532 88.314,299.201 87.964 C 298.870 87.614,298.105 87.206,297.500 87.056 C 296.895 86.907,296.400 86.518,296.400 86.192 C 296.400 85.817,296.009 85.600,295.333 85.600 C 294.747 85.600,294.378 85.489,294.514 85.352 C 294.847 85.019,293.794 84.000,293.117 84.000 C 292.820 84.000,292.317 83.640,292.000 83.200 C 291.683 82.760,291.221 82.400,290.973 82.400 C 290.181 82.400,287.949 81.132,287.728 80.556 C 287.610 80.250,287.174 80.000,286.757 80.000 C 286.341 80.000,286.000 79.820,286.000 79.600 C 286.000 79.380,285.651 79.200,285.224 79.200 C 284.797 79.200,284.334 79.017,284.196 78.793 C 284.058 78.570,283.798 78.478,283.618 78.589 C 283.438 78.700,283.099 78.560,282.865 78.278 C 282.630 77.995,281.800 77.514,281.019 77.208 C 280.239 76.901,279.600 76.504,279.600 76.325 C 279.600 76.146,279.139 76.000,278.576 76.000 C 278.004 76.000,277.660 75.826,277.797 75.605 C 277.937 75.378,277.777 75.311,277.424 75.446 C 277.060 75.586,276.706 75.419,276.561 75.042 C 276.425 74.689,275.884 74.400,275.357 74.400 C 274.831 74.400,274.400 74.220,274.400 74.000 C 274.400 73.780,273.961 73.600,273.424 73.600 C 272.887 73.600,272.336 73.420,272.200 73.200 C 272.064 72.980,271.603 72.800,271.176 72.800 C 270.749 72.800,270.400 72.620,270.400 72.400 C 270.400 72.180,269.860 72.000,269.200 72.000 C 268.540 72.000,268.000 71.823,268.000 71.608 C 268.000 71.392,267.505 71.097,266.900 70.952 C 266.295 70.808,265.593 70.528,265.341 70.330 C 265.088 70.132,264.416 70.054,263.847 70.157 C 263.278 70.260,262.692 70.149,262.545 69.911 C 262.385 69.651,262.463 69.591,262.738 69.762 C 262.992 69.919,263.200 69.869,263.200 69.650 C 263.200 69.432,262.643 69.269,261.962 69.289 C 261.281 69.308,260.601 69.126,260.452 68.884 C 260.303 68.642,259.825 68.499,259.390 68.566 C 258.956 68.632,258.492 68.521,258.361 68.318 C 258.229 68.115,257.509 67.854,256.761 67.737 C 256.012 67.620,255.177 67.341,254.904 67.116 C 254.631 66.892,253.873 66.787,253.219 66.883 C 252.499 66.988,251.956 66.861,251.840 66.560 C 251.715 66.233,250.963 66.102,249.643 66.177 C 248.333 66.251,247.665 66.136,247.718 65.845 C 247.770 65.565,247.060 65.407,245.800 65.418 C 244.527 65.430,243.644 65.231,243.371 64.871 C 243.062 64.464,242.353 64.357,240.835 64.489 C 239.537 64.602,238.551 64.494,238.265 64.209 C 237.985 63.931,236.306 63.732,234.046 63.709 C 231.923 63.688,230.180 63.492,230.035 63.257 C 229.874 62.996,228.056 62.890,225.135 62.973 C 222.582 63.045,220.323 62.991,220.117 62.852 C 219.393 62.366,219.238 61.219,219.817 60.640 C 220.138 60.319,220.400 59.594,220.400 59.029 C 220.400 58.463,220.580 58.000,220.800 58.000 C 221.020 58.000,221.200 57.640,221.200 57.200 C 221.200 56.760,221.380 56.400,221.600 56.400 C 221.820 56.400,221.979 56.265,221.953 56.100 C 221.810 55.196,222.052 54.385,222.400 54.600 C 222.628 54.741,222.800 54.396,222.800 53.800 C 222.800 53.109,222.957 52.850,223.263 53.039 C 223.580 53.235,223.655 53.054,223.500 52.463 C 223.348 51.881,223.458 51.600,223.837 51.600 C 224.147 51.600,224.400 51.322,224.400 50.983 C 224.400 50.644,224.760 49.980,225.200 49.508 C 225.640 49.036,226.000 48.329,226.000 47.939 C 226.000 47.548,226.360 47.035,226.800 46.800 C 227.240 46.565,227.600 46.108,227.600 45.786 C 227.600 45.464,227.777 45.200,227.992 45.200 C 228.208 45.200,228.498 44.750,228.636 44.200 C 228.774 43.650,229.137 43.200,229.443 43.200 C 229.750 43.200,230.000 42.916,230.000 42.569 C 230.000 42.221,230.701 41.243,231.559 40.394 C 232.416 39.545,233.016 38.749,232.892 38.625 C 232.768 38.501,232.967 38.400,233.333 38.400 C 233.700 38.400,234.000 38.150,234.000 37.845 C 234.000 37.127,238.882 32.270,241.178 30.703 C 241.740 30.319,242.065 30.004,241.900 30.003 C 241.735 30.001,241.915 29.669,242.300 29.263 C 242.685 28.858,243.122 28.591,243.271 28.669 C 243.420 28.748,243.657 28.449,243.798 28.006 C 243.939 27.563,244.210 27.200,244.400 27.200 C 244.746 27.200,245.459 25.452,245.159 25.342 C 245.071 25.310,245.337 24.912,245.749 24.457 C 246.160 24.002,246.396 23.366,246.272 23.044 C 246.149 22.722,246.293 22.255,246.592 22.006 C 247.263 21.450,247.257 10.148,246.585 9.685 C 246.359 9.528,246.185 9.130,246.200 8.800 C 246.215 8.470,246.074 8.092,245.887 7.960 C 245.700 7.828,245.490 7.378,245.420 6.960 C 245.351 6.542,245.084 6.248,244.828 6.306 C 244.572 6.365,244.392 6.185,244.428 5.906 C 244.549 4.990,244.404 4.262,244.152 4.514 C 243.899 4.768,242.800 3.863,242.800 3.400 C 242.800 2.756,240.007 0.907,238.400 0.487 C 237.281 0.194,230.201 -0.080,229.967 0.160 M209.600 96.400 C 209.600 96.641,211.267 96.800,213.800 96.800 C 216.333 96.800,218.000 96.959,218.000 97.200 C 218.000 97.428,219.192 97.600,220.776 97.600 C 222.303 97.600,223.664 97.780,223.800 98.000 C 223.936 98.220,224.847 98.400,225.824 98.400 C 226.801 98.400,227.600 98.588,227.600 98.818 C 227.600 99.047,227.825 99.206,228.100 99.170 C 229.473 98.992,232.022 99.241,231.840 99.536 C 231.726 99.720,232.287 99.896,233.087 99.926 C 233.887 99.956,234.677 100.201,234.843 100.470 C 235.010 100.739,235.860 100.968,236.733 100.980 C 237.606 100.991,238.238 101.135,238.137 101.300 C 237.961 101.586,238.756 101.759,239.963 101.697 C 240.272 101.681,240.775 101.918,241.081 102.224 C 241.387 102.530,242.169 102.718,242.819 102.642 C 243.601 102.551,244.000 102.684,244.000 103.034 C 244.000 103.326,244.402 103.546,244.900 103.525 C 246.904 103.441,247.444 103.582,246.800 104.023 C 246.350 104.331,246.525 104.388,247.500 104.252 C 248.439 104.120,248.800 104.227,248.800 104.635 C 248.800 104.946,248.935 105.167,249.100 105.127 C 249.704 104.981,252.800 106.138,252.800 106.510 C 252.800 106.721,253.241 106.809,253.780 106.706 C 254.343 106.598,254.726 106.698,254.680 106.941 C 254.636 107.173,254.870 107.389,255.200 107.420 C 255.530 107.452,256.126 107.506,256.524 107.539 C 256.962 107.576,257.134 107.782,256.961 108.063 C 256.765 108.381,256.948 108.455,257.548 108.298 C 258.109 108.151,258.811 108.378,259.512 108.935 C 261.246 110.310,262.320 110.806,263.001 110.544 C 263.409 110.388,263.591 110.496,263.516 110.851 C 263.443 111.195,263.729 111.383,264.282 111.354 C 264.767 111.328,265.127 111.508,265.082 111.754 C 265.037 111.999,265.295 112.152,265.654 112.093 C 266.014 112.034,266.418 112.270,266.552 112.618 C 266.685 112.966,266.955 113.151,267.152 113.030 C 267.348 112.908,267.728 113.072,267.995 113.394 C 268.262 113.716,269.107 114.096,269.872 114.240 C 270.638 114.384,271.358 114.747,271.474 115.048 C 271.589 115.349,271.845 115.496,272.042 115.374 C 272.239 115.252,272.400 115.343,272.400 115.576 C 272.400 115.809,272.676 116.000,273.013 116.000 C 273.349 116.000,273.729 116.270,273.855 116.600 C 273.982 116.930,274.426 117.200,274.843 117.200 C 275.259 117.200,275.600 117.360,275.600 117.556 C 275.600 117.752,276.365 118.301,277.300 118.777 C 280.103 120.203,280.891 120.701,281.239 121.264 C 281.422 121.559,281.742 121.800,281.952 121.800 C 282.161 121.800,282.698 122.222,283.145 122.737 C 283.592 123.252,284.114 123.577,284.306 123.458 C 284.701 123.214,286.800 125.030,286.800 125.616 C 286.800 125.827,287.088 126.000,287.440 126.000 C 287.791 126.000,288.578 126.534,289.187 127.186 C 289.796 127.838,290.408 128.258,290.547 128.119 C 290.686 127.980,290.800 128.197,290.800 128.600 C 290.800 129.003,290.896 129.237,291.014 129.119 C 291.132 129.002,291.780 129.421,292.455 130.051 C 293.129 130.681,293.871 131.080,294.102 130.937 C 294.334 130.794,294.415 130.852,294.282 131.067 C 293.986 131.546,295.415 132.839,295.830 132.467 C 295.994 132.320,296.011 132.405,295.869 132.655 C 295.560 133.195,296.542 134.125,296.970 133.697 C 297.133 133.533,297.207 133.670,297.133 134.000 C 297.060 134.332,297.236 134.551,297.530 134.490 C 297.821 134.430,297.962 134.538,297.843 134.730 C 297.628 135.078,299.339 136.799,299.903 136.801 C 300.066 136.802,300.553 137.329,300.984 137.973 C 301.415 138.616,301.910 139.055,302.084 138.948 C 302.258 138.841,302.400 138.952,302.400 139.195 C 302.400 139.795,304.254 141.612,304.558 141.309 C 304.691 141.176,304.800 141.462,304.800 141.946 C 304.800 142.429,305.069 142.928,305.398 143.054 C 305.726 143.181,305.896 143.445,305.774 143.642 C 305.652 143.839,305.821 144.000,306.149 144.000 C 306.478 144.000,306.860 144.360,307.000 144.800 C 307.140 145.240,307.522 145.600,307.851 145.600 C 308.179 145.600,308.345 145.765,308.221 145.966 C 308.097 146.167,308.163 146.392,308.368 146.466 C 308.572 146.540,308.798 146.868,308.870 147.196 C 308.941 147.524,309.495 148.271,310.100 148.857 C 310.705 149.442,311.200 150.169,311.200 150.472 C 311.200 150.775,311.560 151.283,312.000 151.600 C 312.440 151.917,312.800 152.457,312.800 152.800 C 312.800 153.143,313.160 153.683,313.600 154.000 C 314.040 154.317,314.400 154.820,314.400 155.117 C 314.400 155.794,315.419 156.847,315.752 156.514 C 315.889 156.378,316.000 156.747,316.000 157.333 C 316.000 158.033,316.215 158.400,316.624 158.400 C 316.967 158.400,317.140 158.573,317.010 158.784 C 316.739 159.222,317.527 160.767,318.361 161.431 C 318.670 161.677,318.794 162.086,318.638 162.339 C 318.481 162.593,318.543 162.800,318.776 162.800 C 319.009 162.800,319.200 163.048,319.200 163.351 C 319.200 163.654,319.474 164.130,319.810 164.408 C 320.145 164.686,320.325 165.009,320.209 165.125 C 320.093 165.240,320.314 165.684,320.699 166.110 C 321.085 166.535,321.400 167.000,321.400 167.142 C 321.400 167.284,321.511 167.363,321.646 167.318 C 321.782 167.273,321.872 167.633,321.846 168.118 C 321.821 168.603,322.007 168.961,322.259 168.914 C 322.523 168.864,322.636 169.142,322.524 169.569 C 322.418 169.976,322.526 170.431,322.765 170.578 C 323.004 170.726,323.200 171.216,323.200 171.666 C 323.200 172.191,323.395 172.411,323.741 172.278 C 324.116 172.134,324.251 172.359,324.179 173.007 C 324.123 173.522,324.326 174.040,324.632 174.157 C 324.945 174.277,325.081 174.644,324.945 175.000 C 324.812 175.346,324.995 175.953,325.352 176.347 C 325.710 176.742,325.890 177.177,325.753 177.313 C 325.617 177.450,325.789 177.846,326.135 178.193 C 326.482 178.539,326.665 179.086,326.542 179.408 C 326.416 179.736,326.599 180.101,326.956 180.239 C 327.308 180.373,327.498 180.642,327.379 180.835 C 327.109 181.270,328.474 185.200,328.894 185.200 C 329.062 185.200,329.200 185.740,329.200 186.400 C 329.200 187.060,329.380 187.600,329.600 187.600 C 329.820 187.600,330.000 188.153,330.000 188.829 C 330.000 189.504,330.242 190.299,330.538 190.595 C 330.833 190.891,331.042 191.688,331.002 192.366 C 330.962 193.045,331.080 193.600,331.264 193.600 C 331.449 193.600,331.600 194.320,331.600 195.200 C 331.600 196.080,331.780 196.800,332.000 196.800 C 332.220 196.800,332.400 197.520,332.400 198.400 C 332.400 199.280,332.580 200.000,332.800 200.000 C 333.020 200.000,333.200 200.911,333.200 202.024 C 333.200 203.271,333.353 203.952,333.600 203.800 C 333.964 203.575,334.217 206.168,334.021 208.100 C 333.982 208.485,334.141 208.800,334.375 208.800 C 334.639 208.800,334.800 209.997,334.800 211.967 C 334.800 213.708,334.975 215.193,335.188 215.267 C 335.402 215.340,335.601 217.110,335.631 219.200 C 335.661 221.290,335.844 223.197,336.039 223.437 C 336.234 223.677,336.408 226.332,336.425 229.336 L 336.458 234.798 346.787 234.750 C 352.469 234.723,357.361 234.854,357.659 235.039 C 357.956 235.225,358.560 235.432,359.000 235.500 C 359.440 235.568,359.860 235.798,359.933 236.012 C 360.007 236.225,360.342 236.400,360.677 236.400 C 361.704 236.400,364.800 239.840,364.800 240.981 C 364.800 241.541,364.980 242.000,365.200 242.000 C 365.439 242.000,365.600 243.533,365.600 245.800 C 365.600 248.067,365.439 249.600,365.200 249.600 C 364.980 249.600,364.800 250.241,364.800 251.024 C 364.800 251.871,364.638 252.347,364.400 252.200 C 364.172 252.059,364.000 252.404,364.000 253.000 C 364.000 253.596,363.828 253.941,363.600 253.800 C 363.380 253.664,363.200 253.884,363.200 254.288 C 363.200 254.693,362.840 255.283,362.400 255.600 C 361.960 255.917,361.600 256.411,361.600 256.698 C 361.600 256.985,361.060 257.328,360.400 257.460 C 359.740 257.592,359.200 257.858,359.200 258.050 C 359.200 258.243,358.840 258.400,358.400 258.400 C 357.960 258.400,357.600 258.580,357.600 258.800 C 357.600 259.020,357.075 259.200,356.433 259.200 C 355.792 259.200,355.207 259.378,355.133 259.597 C 355.060 259.815,354.460 260.032,353.800 260.080 C 353.140 260.127,352.494 260.318,352.364 260.503 C 352.234 260.689,351.154 260.894,349.964 260.960 C 348.774 261.025,347.530 261.188,347.200 261.322 C 346.870 261.456,345.293 261.619,343.695 261.683 C 342.098 261.747,340.755 261.890,340.713 262.000 C 340.670 262.110,340.503 263.370,340.342 264.800 C 339.764 269.936,339.515 271.406,339.160 271.780 C 338.962 271.989,338.800 273.013,338.800 274.056 C 338.800 275.099,338.620 276.064,338.400 276.200 C 338.180 276.336,338.000 276.977,338.000 277.624 C 338.000 278.271,337.820 278.800,337.600 278.800 C 337.380 278.800,337.200 279.520,337.200 280.400 C 337.200 281.280,337.058 282.000,336.885 282.000 C 336.712 282.000,336.526 282.585,336.472 283.300 C 336.419 284.015,336.200 284.660,335.987 284.733 C 335.774 284.807,335.600 285.291,335.600 285.810 C 335.600 286.328,335.420 286.864,335.200 287.000 C 334.980 287.136,334.800 287.787,334.800 288.447 C 334.800 289.145,334.633 289.544,334.400 289.400 C 334.174 289.260,334.000 289.588,334.000 290.153 C 334.000 290.703,333.820 291.264,333.600 291.400 C 333.380 291.536,333.200 291.997,333.200 292.424 C 333.200 292.851,333.020 293.200,332.800 293.200 C 332.580 293.200,332.400 293.560,332.400 294.000 C 332.400 294.440,332.209 294.800,331.976 294.800 C 331.743 294.800,331.655 294.965,331.780 295.168 C 331.905 295.370,331.736 295.807,331.404 296.139 C 331.072 296.471,330.800 296.990,330.800 297.291 C 330.800 297.593,330.575 298.082,330.300 298.379 C 329.898 298.812,329.904 298.859,330.330 298.617 C 330.768 298.368,330.769 298.461,330.333 299.158 C 330.044 299.621,329.671 300.000,329.504 300.000 C 329.337 300.000,329.200 300.360,329.200 300.800 C 329.200 301.240,329.023 301.600,328.808 301.600 C 328.592 301.600,328.303 302.049,328.165 302.597 C 328.027 303.146,327.767 303.503,327.586 303.391 C 327.261 303.191,326.568 304.720,326.721 305.300 C 326.764 305.465,326.549 305.600,326.243 305.600 C 325.644 305.600,325.023 306.684,325.154 307.500 C 325.199 307.775,324.938 308.000,324.575 308.000 C 324.142 308.000,323.997 308.214,324.153 308.621 C 324.297 308.998,324.225 309.139,323.969 308.981 C 323.444 308.657,322.359 310.019,322.599 310.700 C 322.696 310.975,322.601 311.200,322.387 311.200 C 322.174 311.200,322.000 311.464,322.000 311.787 C 322.000 312.171,321.769 312.286,321.334 312.119 C 320.917 311.959,320.767 312.023,320.932 312.290 C 321.077 312.524,320.943 312.813,320.635 312.931 C 320.327 313.049,319.951 313.711,319.800 314.401 C 319.607 315.277,319.348 315.589,318.941 315.433 C 318.615 315.308,318.466 315.383,318.603 315.605 C 318.737 315.822,318.660 316.000,318.431 316.000 C 318.202 316.000,317.903 316.449,317.765 316.997 C 317.627 317.546,317.399 317.925,317.257 317.839 C 317.116 317.754,316.768 317.935,316.484 318.242 C 316.201 318.549,316.093 318.800,316.246 318.800 C 316.399 318.800,316.226 319.130,315.861 319.532 C 315.497 319.935,315.319 320.385,315.466 320.532 C 315.613 320.680,315.423 320.800,315.043 320.800 C 314.663 320.800,314.464 320.980,314.600 321.200 C 314.736 321.420,314.556 321.600,314.200 321.600 C 313.844 321.600,313.664 321.780,313.800 322.000 C 313.936 322.220,313.860 322.400,313.632 322.400 C 313.020 322.400,309.777 326.049,309.933 326.562 C 310.007 326.803,309.931 326.865,309.766 326.699 C 309.366 326.300,308.000 327.560,308.000 328.329 C 308.000 328.661,307.890 328.823,307.756 328.689 C 307.621 328.555,306.461 329.515,305.178 330.822 C 303.894 332.130,302.648 333.200,302.409 333.200 C 302.169 333.200,301.373 333.785,300.640 334.500 C 298.805 336.288,297.656 337.200,297.238 337.200 C 297.044 337.200,296.778 337.481,296.646 337.825 C 296.514 338.169,296.269 338.368,296.103 338.267 C 295.936 338.166,295.568 338.335,295.284 338.642 C 295.001 338.949,294.906 339.200,295.073 339.200 C 295.515 339.200,293.826 340.337,293.171 340.479 C 292.446 340.638,291.600 341.435,291.600 341.959 C 291.600 342.188,291.330 342.271,291.000 342.145 C 290.670 342.018,290.400 342.114,290.400 342.357 C 290.400 342.601,290.170 342.800,289.888 342.800 C 289.607 342.800,289.117 343.160,288.800 343.600 C 288.483 344.040,287.986 344.400,287.695 344.400 C 287.404 344.400,286.780 344.760,286.308 345.200 C 285.836 345.640,285.202 346.000,284.901 346.000 C 284.599 346.000,284.464 346.180,284.600 346.400 C 284.828 346.769,284.274 346.980,283.459 346.834 C 283.271 346.800,282.759 347.184,282.321 347.686 C 281.882 348.189,281.268 348.546,280.956 348.481 C 280.643 348.416,280.435 348.596,280.494 348.881 C 280.560 349.204,280.261 349.364,279.700 349.305 C 279.113 349.243,278.800 349.425,278.800 349.828 C 278.800 350.169,278.636 350.346,278.435 350.222 C 278.027 349.969,275.606 351.232,275.603 351.700 C 275.601 351.865,275.328 352.000,274.995 352.000 C 274.322 352.000,272.741 352.806,272.345 353.351 C 272.204 353.544,271.888 353.578,271.642 353.426 C 271.396 353.274,271.094 353.411,270.971 353.730 C 270.839 354.075,270.433 354.229,269.974 354.109 C 269.449 353.972,269.200 354.111,269.200 354.541 C 269.200 354.942,268.978 355.090,268.595 354.943 C 268.262 354.815,267.704 354.948,267.355 355.238 C 267.005 355.528,266.426 355.808,266.067 355.861 C 265.708 355.913,265.358 356.127,265.288 356.336 C 265.219 356.544,264.782 356.616,264.318 356.495 C 263.779 356.353,263.570 356.428,263.739 356.702 C 263.902 356.965,263.388 357.233,262.402 357.400 C 261.521 357.549,260.800 357.834,260.800 358.035 C 260.800 358.236,260.260 358.400,259.600 358.400 C 258.940 358.400,258.400 358.580,258.400 358.800 C 258.400 359.020,257.860 359.200,257.200 359.200 C 256.540 359.200,256.000 359.380,256.000 359.600 C 256.000 359.820,255.449 360.000,254.776 360.000 C 254.103 360.000,253.642 360.144,253.751 360.320 C 253.859 360.496,253.285 360.684,252.474 360.737 C 251.663 360.791,250.940 361.007,250.867 361.218 C 250.793 361.428,249.938 361.600,248.967 361.600 C 247.995 361.600,247.200 361.780,247.200 362.000 C 247.200 362.220,246.315 362.400,245.233 362.400 C 244.152 362.400,243.207 362.570,243.133 362.779 C 243.060 362.987,242.100 363.195,241.000 363.241 C 239.900 363.288,238.809 363.471,238.576 363.648 C 238.343 363.826,236.993 364.001,235.576 364.038 C 234.159 364.074,232.793 364.268,232.541 364.467 C 232.288 364.667,230.254 364.855,228.021 364.886 C 225.787 364.916,223.869 365.089,223.757 365.270 C 223.487 365.706,184.400 365.699,184.400 365.264 C 184.400 365.079,181.844 364.899,178.720 364.864 C 175.559 364.828,172.863 364.623,172.640 364.400 C 172.420 364.180,170.836 364.000,169.120 364.000 C 167.404 364.000,166.000 363.859,166.000 363.688 C 166.000 363.516,164.875 363.333,163.500 363.282 C 162.125 363.231,160.940 363.011,160.867 362.794 C 160.793 362.577,159.848 362.400,158.767 362.400 C 157.685 362.400,156.800 362.220,156.800 362.000 C 156.800 361.780,155.911 361.600,154.824 361.600 C 153.737 361.600,152.736 361.420,152.600 361.200 C 152.464 360.980,151.733 360.800,150.976 360.800 C 150.219 360.800,149.600 360.620,149.600 360.400 C 149.600 360.180,148.880 360.000,148.000 360.000 C 147.120 360.000,146.400 359.820,146.400 359.600 C 146.400 359.380,145.860 359.200,145.200 359.200 C 144.540 359.200,144.000 359.020,144.000 358.800 C 144.000 358.580,143.460 358.400,142.800 358.400 C 142.140 358.400,141.600 358.257,141.600 358.083 C 141.600 357.799,138.405 356.690,137.400 356.626 C 137.180 356.612,136.761 356.374,136.469 356.098 C 136.177 355.822,135.506 355.674,134.979 355.770 C 134.382 355.878,134.053 355.765,134.109 355.472 C 134.166 355.176,133.717 355.028,132.908 355.075 C 132.121 355.120,131.653 354.971,131.708 354.693 C 131.796 354.256,131.571 354.162,130.176 354.050 C 129.815 354.021,129.672 353.807,129.836 353.542 C 130.036 353.218,129.799 353.164,129.026 353.358 C 128.342 353.529,128.025 353.484,128.178 353.236 C 128.313 353.018,127.791 352.722,127.015 352.576 C 126.240 352.431,125.706 352.152,125.827 351.956 C 125.948 351.760,125.576 351.600,125.000 351.600 C 124.424 351.600,124.058 351.429,124.187 351.221 C 124.316 351.012,124.057 350.912,123.611 350.998 C 123.129 351.091,122.800 350.941,122.800 350.629 C 122.800 350.337,122.400 350.125,121.900 350.152 C 121.375 350.180,121.042 349.992,121.100 349.700 C 121.155 349.425,120.840 349.200,120.400 349.200 C 119.960 349.200,119.600 349.020,119.600 348.800 C 119.600 348.580,119.268 348.400,118.862 348.400 C 118.456 348.400,117.798 348.040,117.400 347.600 C 117.002 347.160,116.428 346.800,116.124 346.800 C 115.444 346.800,113.515 345.602,113.080 344.910 C 112.904 344.629,112.499 344.400,112.180 344.400 C 111.861 344.400,111.600 344.220,111.600 344.000 C 111.600 343.780,111.375 343.600,111.100 343.599 C 110.825 343.599,109.970 343.059,109.200 342.400 C 108.430 341.741,107.641 341.201,107.447 341.201 C 107.253 341.200,106.758 340.812,106.347 340.339 C 105.936 339.865,105.600 339.605,105.600 339.761 C 105.600 339.918,105.070 339.732,104.422 339.349 C 103.774 338.966,103.318 338.533,103.408 338.387 C 103.499 338.240,103.129 337.883,102.586 337.593 C 102.044 337.302,101.600 336.905,101.600 336.709 C 101.600 336.513,101.438 336.453,101.241 336.575 C 101.043 336.697,100.304 336.258,99.598 335.598 C 98.893 334.939,98.154 334.400,97.958 334.400 C 97.761 334.400,97.600 334.220,97.600 333.999 C 97.600 333.779,96.762 332.834,95.738 331.899 C 93.904 330.225,89.750 326.025,87.853 323.926 C 87.319 323.335,86.998 322.721,87.141 322.562 C 87.283 322.403,87.094 322.382,86.720 322.516 C 86.214 322.697,86.104 322.595,86.288 322.114 C 86.453 321.684,86.380 321.565,86.068 321.758 C 85.801 321.923,85.600 321.821,85.600 321.520 C 85.600 321.230,85.240 320.768,84.800 320.493 C 84.360 320.218,84.000 319.744,84.000 319.439 C 84.000 319.135,83.719 318.778,83.375 318.646 C 83.031 318.514,82.832 318.269,82.933 318.103 C 83.034 317.936,82.865 317.568,82.558 317.284 C 82.251 317.001,82.000 316.906,82.000 317.073 C 82.000 317.241,81.686 316.933,81.303 316.389 C 80.920 315.845,80.653 315.255,80.710 315.079 C 80.856 314.629,79.750 313.584,79.448 313.886 C 79.311 314.022,79.200 313.855,79.200 313.516 C 79.200 313.176,78.932 312.676,78.604 312.404 C 78.277 312.132,78.107 311.750,78.228 311.555 C 78.349 311.360,78.162 311.200,77.814 311.200 C 77.433 311.200,77.086 310.732,76.945 310.026 C 76.816 309.380,76.460 308.755,76.155 308.638 C 75.850 308.521,75.600 308.162,75.600 307.841 C 75.600 307.520,75.285 306.942,74.900 306.557 C 74.515 306.172,74.200 305.703,74.200 305.514 C 74.200 305.325,73.960 305.022,73.666 304.841 C 73.372 304.659,73.147 304.396,73.166 304.255 C 73.279 303.406,73.217 303.300,71.207 300.917 C 70.983 300.651,70.800 300.167,70.800 299.840 C 70.800 299.514,70.620 299.136,70.400 299.000 C 70.180 298.864,70.000 298.495,70.000 298.181 C 70.000 297.866,69.703 297.262,69.340 296.838 C 68.608 295.983,67.615 293.386,67.606 292.300 C 67.603 291.915,67.464 291.600,67.298 291.600 C 66.907 291.600,65.972 289.488,65.892 288.424 C 65.858 287.971,65.688 287.600,65.515 287.600 C 65.342 287.600,65.200 287.161,65.200 286.624 C 65.200 286.087,65.020 285.536,64.800 285.400 C 64.580 285.264,64.400 284.623,64.400 283.976 C 64.400 283.329,64.220 282.800,64.000 282.800 C 63.780 282.800,63.600 282.080,63.600 281.200 C 63.600 280.320,63.420 279.600,63.200 279.600 C 62.980 279.600,62.800 278.715,62.800 277.633 C 62.800 276.552,62.628 275.607,62.418 275.533 C 62.207 275.460,61.996 274.680,61.949 273.800 C 61.902 272.920,61.710 271.996,61.521 271.746 C 61.333 271.497,61.156 270.597,61.128 269.746 C 61.099 268.896,60.925 268.100,60.740 267.978 C 60.555 267.855,60.364 267.270,60.315 266.678 C 60.266 266.085,60.085 265.600,59.913 265.600 C 59.741 265.600,59.600 265.348,59.600 265.040 C 59.600 264.071,56.745 261.521,55.907 261.740 C 55.472 261.854,55.058 261.696,54.933 261.369 C 54.802 261.029,54.158 260.800,53.334 260.800 C 52.515 260.800,52.053 260.637,52.200 260.400 C 52.349 260.158,51.804 260.000,50.824 260.000 C 49.931 260.000,49.200 259.820,49.200 259.600 C 49.200 259.380,48.221 259.200,47.024 259.200 C 45.827 259.200,44.753 259.048,44.638 258.861 C 44.523 258.675,43.885 258.507,43.220 258.488 C 42.555 258.469,41.783 258.312,41.505 258.138 C 41.227 257.965,40.659 257.770,40.241 257.705 C 39.824 257.640,39.173 257.230,38.794 256.794 C 38.416 256.357,37.919 256.000,37.691 256.000 C 37.462 256.000,37.369 255.640,37.484 255.200 C 37.601 254.753,37.496 254.400,37.247 254.400 C 37.001 254.400,36.800 254.040,36.800 253.600 C 36.800 253.160,36.620 252.800,36.400 252.800 C 36.180 252.800,36.000 252.181,36.000 251.424 C 36.000 250.667,35.820 249.936,35.600 249.800 C 35.068 249.471,35.068 241.200,35.600 241.200 C 35.820 241.200,36.000 240.840,36.000 240.400 C 36.000 239.960,36.167 239.600,36.372 239.600 C 36.577 239.600,36.802 239.195,36.872 238.700 C 36.942 238.205,37.180 237.784,37.400 237.765 C 38.258 237.691,39.184 237.098,38.974 236.758 C 38.852 236.561,39.213 236.400,39.776 236.400 C 40.339 236.400,40.800 236.220,40.800 236.000 C 40.800 235.780,41.505 235.600,42.367 235.600 C 43.228 235.600,43.998 235.407,44.077 235.170 C 44.173 234.882,47.386 234.717,53.810 234.670 L 63.400 234.600 63.523 232.891 C 63.591 231.951,63.798 231.275,63.983 231.389 C 64.167 231.503,64.343 229.494,64.373 226.923 C 64.403 224.352,64.578 222.058,64.762 221.824 C 64.946 221.591,65.132 219.870,65.174 218.000 C 65.216 216.130,65.420 214.540,65.626 214.467 C 65.831 214.393,66.000 213.088,66.000 211.567 C 66.000 210.045,66.151 208.800,66.335 208.800 C 66.519 208.800,66.702 207.951,66.742 206.913 C 66.781 205.876,66.990 204.850,67.207 204.633 C 67.423 204.417,67.600 203.477,67.600 202.544 C 67.600 201.611,67.769 200.743,67.975 200.616 C 68.181 200.488,68.339 199.630,68.327 198.708 C 68.314 197.786,68.505 196.965,68.752 196.883 C 68.998 196.801,69.200 196.028,69.200 195.167 C 69.200 194.305,69.335 193.600,69.500 193.599 C 69.665 193.599,69.848 192.924,69.907 192.099 C 69.966 191.275,70.191 190.540,70.407 190.467 C 70.623 190.393,70.800 189.628,70.800 188.767 C 70.800 187.905,70.959 187.200,71.153 187.200 C 71.516 187.200,72.552 183.957,72.596 182.679 C 72.610 182.282,72.881 181.797,73.199 181.601 C 73.517 181.404,73.646 181.113,73.487 180.954 C 73.328 180.794,73.478 180.236,73.820 179.713 C 74.163 179.189,74.389 178.365,74.322 177.881 C 74.242 177.301,74.388 177.040,74.751 177.117 C 75.123 177.196,75.235 176.976,75.095 176.443 C 74.970 175.965,75.120 175.563,75.473 175.427 C 75.838 175.287,76.011 174.789,75.933 174.101 C 75.853 173.389,75.984 173.035,76.304 173.100 C 76.577 173.155,76.779 173.065,76.753 172.900 C 76.598 171.923,76.853 171.185,77.258 171.436 C 77.574 171.631,77.654 171.393,77.516 170.672 C 77.406 170.096,77.457 169.712,77.630 169.819 C 77.803 169.926,78.058 169.830,78.196 169.607 C 78.334 169.383,78.225 169.200,77.954 169.200 C 77.657 169.200,77.783 168.842,78.271 168.300 C 79.029 167.458,79.807 165.872,79.526 165.742 C 79.457 165.710,79.743 165.305,80.162 164.842 C 80.581 164.379,80.797 164.000,80.642 164.000 C 80.486 164.000,80.840 163.370,81.427 162.600 C 82.014 161.830,82.356 161.200,82.185 161.200 C 82.015 161.200,82.147 160.885,82.477 160.500 C 83.141 159.727,83.762 158.366,83.664 157.900 C 83.629 157.735,83.870 157.600,84.200 157.600 C 84.530 157.600,84.800 157.409,84.800 157.176 C 84.800 156.943,84.588 156.884,84.329 157.044 C 84.070 157.204,84.385 156.674,85.029 155.867 C 85.673 155.060,86.203 154.265,86.207 154.100 C 86.214 153.775,87.270 152.448,88.700 150.968 C 89.195 150.456,89.600 149.774,89.600 149.454 C 89.600 149.133,90.130 148.425,90.778 147.880 C 91.426 147.335,91.873 146.806,91.772 146.705 C 91.671 146.604,92.727 145.354,94.119 143.928 C 95.512 142.501,97.081 140.718,97.606 139.967 C 98.132 139.215,98.886 138.309,99.281 137.953 C 99.676 137.597,100.000 137.102,100.000 136.853 C 100.000 136.604,100.225 136.445,100.500 136.500 C 100.775 136.555,100.955 136.375,100.900 136.100 C 100.845 135.825,101.027 135.600,101.304 135.600 C 101.581 135.600,102.037 135.233,102.317 134.784 C 102.597 134.336,102.985 134.067,103.178 134.187 C 103.372 134.306,104.201 133.638,105.021 132.702 C 105.840 131.766,106.264 131.360,105.962 131.800 C 105.421 132.589,105.426 132.590,106.297 131.847 C 106.783 131.432,107.085 130.937,106.967 130.747 C 106.849 130.556,107.020 130.400,107.347 130.400 C 107.674 130.400,108.296 129.950,108.729 129.400 C 109.161 128.850,109.695 128.400,109.915 128.400 C 110.135 128.400,110.428 128.104,110.567 127.743 C 110.705 127.381,110.926 127.193,111.057 127.324 C 111.371 127.638,112.400 126.595,112.400 125.962 C 112.400 125.690,112.509 125.576,112.643 125.709 C 112.960 126.026,113.971 125.091,113.734 124.700 C 113.635 124.535,113.935 124.400,114.402 124.400 C 114.869 124.400,115.706 123.860,116.261 123.200 C 116.817 122.540,117.510 122.000,117.803 122.000 C 118.096 122.000,118.915 121.385,119.623 120.634 C 120.332 119.883,121.157 119.362,121.456 119.477 C 121.789 119.604,122.000 119.410,122.000 118.976 C 122.000 118.586,122.109 118.376,122.243 118.509 C 122.376 118.643,122.860 118.403,123.318 117.976 C 123.776 117.549,124.387 117.200,124.675 117.200 C 124.964 117.200,125.200 117.020,125.200 116.800 C 125.200 116.580,125.560 116.400,126.000 116.400 C 126.440 116.400,126.800 116.220,126.800 116.000 C 126.800 115.780,127.160 115.600,127.600 115.600 C 128.040 115.600,128.400 115.420,128.400 115.200 C 128.400 114.980,128.760 114.800,129.200 114.800 C 129.640 114.800,130.000 114.536,130.000 114.213 C 130.000 113.856,130.235 113.715,130.597 113.854 C 130.937 113.985,131.299 113.808,131.439 113.444 C 131.573 113.092,131.865 112.917,132.087 113.054 C 132.308 113.190,132.606 113.114,132.749 112.883 C 132.891 112.653,133.272 112.405,133.594 112.332 C 133.917 112.259,134.425 111.973,134.723 111.696 C 135.021 111.419,135.430 111.295,135.632 111.420 C 135.835 111.545,136.000 111.457,136.000 111.224 C 136.000 110.991,136.345 110.800,136.767 110.800 C 137.188 110.800,137.593 110.633,137.667 110.430 C 137.740 110.226,138.070 110.001,138.400 109.930 C 138.730 109.858,139.090 109.710,139.200 109.600 C 139.310 109.490,140.210 109.106,141.200 108.746 C 142.197 108.384,142.948 107.871,142.883 107.596 C 142.806 107.265,143.104 107.165,143.783 107.295 C 144.343 107.402,144.800 107.334,144.800 107.145 C 144.800 106.955,145.149 106.800,145.576 106.800 C 146.003 106.800,146.464 106.620,146.600 106.400 C 146.736 106.180,147.287 106.000,147.824 106.000 C 148.416 106.000,148.800 105.769,148.800 105.413 C 148.800 105.071,149.036 104.916,149.364 105.041 C 149.674 105.161,150.484 104.970,151.164 104.619 C 151.844 104.267,152.403 104.119,152.406 104.290 C 152.409 104.460,152.548 104.387,152.714 104.126 C 152.879 103.865,153.520 103.585,154.137 103.502 C 154.754 103.419,155.381 103.176,155.530 102.962 C 155.678 102.748,156.160 102.579,156.600 102.586 C 157.040 102.594,157.638 102.330,157.930 102.000 C 158.400 101.467,158.426 101.467,158.161 102.000 C 157.969 102.385,158.198 102.314,158.800 101.800 C 159.316 101.360,159.606 101.225,159.445 101.500 C 159.033 102.204,159.664 102.100,163.200 100.880 C 163.530 100.766,163.935 100.702,164.100 100.736 C 164.265 100.771,164.400 100.620,164.400 100.400 C 164.400 100.180,165.120 100.000,166.000 100.000 C 166.880 100.000,167.600 99.820,167.600 99.600 C 167.600 99.380,168.500 99.200,169.600 99.200 C 170.700 99.200,171.600 99.020,171.600 98.800 C 171.600 98.580,172.399 98.400,173.376 98.400 C 174.353 98.400,175.264 98.220,175.400 98.000 C 175.536 97.780,176.501 97.600,177.544 97.600 C 178.587 97.600,179.682 97.375,179.979 97.100 C 180.410 96.700,180.461 96.700,180.235 97.100 C 180.065 97.402,180.187 97.600,180.543 97.600 C 180.868 97.600,181.193 97.427,181.267 97.216 C 181.340 97.005,183.158 96.803,185.306 96.768 C 187.455 96.732,189.310 96.545,189.430 96.352 C 189.741 95.848,209.600 95.896,209.600 96.400 M132.800 199.609 C 132.800 199.824,132.116 200.000,131.280 200.000 C 130.444 200.000,129.589 200.169,129.380 200.375 C 129.171 200.582,128.550 200.825,128.000 200.915 C 127.450 201.006,126.331 201.377,125.513 201.740 C 124.695 202.103,123.739 202.400,123.389 202.400 C 123.039 202.400,122.864 202.580,123.000 202.800 C 123.141 203.028,122.796 203.200,122.200 203.200 C 121.604 203.200,121.259 203.372,121.400 203.600 C 121.536 203.820,121.322 204.000,120.924 204.000 C 120.526 204.001,119.683 204.446,119.051 204.989 C 118.419 205.533,117.564 206.084,117.151 206.216 C 116.738 206.347,116.400 206.742,116.400 207.094 C 116.400 207.445,116.289 207.622,116.152 207.486 C 115.776 207.110,114.712 208.334,115.004 208.807 C 115.145 209.034,115.021 209.170,114.730 209.110 C 114.438 209.049,114.245 209.225,114.300 209.500 C 114.355 209.775,114.130 210.000,113.800 210.000 C 113.470 210.000,113.200 210.270,113.200 210.600 C 113.200 210.930,113.009 211.200,112.776 211.200 C 112.543 211.200,112.465 211.381,112.602 211.603 C 112.739 211.824,112.569 212.114,112.225 212.246 C 111.881 212.378,111.600 212.826,111.600 213.243 C 111.600 213.659,111.420 214.000,111.200 214.000 C 110.980 214.000,110.800 214.360,110.800 214.800 C 110.800 215.240,110.620 215.600,110.400 215.600 C 110.180 215.600,110.000 216.140,110.000 216.800 C 110.000 217.460,109.820 218.000,109.600 218.000 C 109.380 218.000,109.200 218.540,109.200 219.200 C 109.200 219.860,109.020 220.400,108.800 220.400 C 108.580 220.400,108.400 221.401,108.400 222.624 C 108.400 223.847,108.244 224.751,108.053 224.633 C 107.862 224.514,107.705 226.848,107.705 229.818 C 107.705 232.788,107.862 235.314,108.053 235.433 C 108.244 235.551,108.400 236.717,108.400 238.024 C 108.400 239.341,108.578 240.400,108.800 240.400 C 109.020 240.400,109.200 241.120,109.200 242.000 C 109.200 242.880,109.380 243.600,109.600 243.600 C 109.820 243.600,110.000 244.140,110.000 244.800 C 110.000 245.460,110.181 246.000,110.402 246.000 C 110.622 246.000,111.020 246.810,111.284 247.800 C 111.549 248.790,111.988 249.600,112.259 249.600 C 112.531 249.600,112.881 249.808,113.038 250.062 C 113.225 250.365,113.147 250.414,112.810 250.206 C 112.465 249.993,112.363 250.072,112.498 250.444 C 112.609 250.750,112.896 250.957,113.136 250.905 C 113.375 250.852,113.468 251.077,113.343 251.405 C 113.217 251.732,113.270 252.000,113.460 252.000 C 113.649 252.000,114.042 252.536,114.332 253.190 C 114.621 253.845,114.980 254.340,115.129 254.290 C 115.278 254.241,115.456 254.380,115.524 254.600 C 115.592 254.820,115.997 255.129,116.424 255.287 C 116.851 255.445,117.200 255.861,117.200 256.211 C 117.200 256.561,117.380 256.736,117.600 256.600 C 117.820 256.464,118.000 256.556,118.000 256.805 C 118.000 257.461,119.041 258.400,119.768 258.400 C 120.112 258.400,120.618 258.760,120.893 259.200 C 121.168 259.640,121.709 260.000,122.096 260.000 C 122.483 260.000,122.800 260.180,122.800 260.400 C 122.800 260.620,123.261 260.800,123.824 260.800 C 124.404 260.800,124.740 260.973,124.600 261.200 C 124.464 261.420,124.713 261.600,125.153 261.600 C 125.593 261.600,126.064 261.780,126.200 262.000 C 126.336 262.220,126.977 262.400,127.624 262.400 C 128.271 262.400,128.800 262.580,128.800 262.800 C 128.800 263.020,129.689 263.200,130.776 263.200 C 131.863 263.200,132.857 263.368,132.984 263.574 C 133.111 263.780,135.548 263.948,138.400 263.948 C 141.252 263.948,143.689 263.780,143.816 263.574 C 143.943 263.368,144.937 263.200,146.024 263.200 C 147.111 263.200,148.000 263.020,148.000 262.800 C 148.000 262.580,148.540 262.400,149.200 262.400 C 149.860 262.400,150.400 262.220,150.400 262.000 C 150.400 261.780,150.940 261.600,151.600 261.600 C 152.260 261.600,152.800 261.420,152.800 261.200 C 152.800 260.980,153.160 260.800,153.600 260.800 C 154.040 260.800,154.400 260.620,154.400 260.400 C 154.400 260.180,154.760 260.000,155.200 260.000 C 155.640 260.000,156.000 259.820,156.000 259.600 C 156.000 259.380,156.259 259.200,156.575 259.200 C 156.892 259.200,157.742 258.660,158.464 258.000 C 159.187 257.340,160.021 256.800,160.318 256.800 C 161.030 256.800,161.827 255.975,162.176 254.876 C 162.331 254.388,162.624 254.091,162.828 254.217 C 163.240 254.472,165.049 252.582,165.410 251.520 C 165.556 251.091,165.880 250.932,166.290 251.090 C 166.774 251.276,166.874 251.170,166.684 250.674 C 166.526 250.263,166.614 250.046,166.914 250.105 C 167.198 250.160,167.361 249.832,167.307 249.315 C 167.237 248.641,167.372 248.491,167.873 248.683 C 168.316 248.853,168.436 248.782,168.240 248.465 C 168.075 248.198,168.219 247.891,168.575 247.754 C 168.919 247.622,169.200 247.174,169.200 246.757 C 169.200 246.341,169.391 246.000,169.624 246.000 C 169.857 246.000,169.952 245.847,169.836 245.659 C 169.720 245.471,169.884 244.976,170.200 244.559 C 170.516 244.142,170.780 243.395,170.787 242.900 C 170.794 242.405,170.957 242.000,171.149 242.000 C 171.939 242.000,172.718 228.244,171.955 227.772 C 171.760 227.651,171.600 226.863,171.600 226.019 C 171.600 225.052,171.387 224.404,171.023 224.264 C 170.657 224.124,170.511 223.677,170.626 223.047 C 170.725 222.499,170.625 221.939,170.403 221.802 C 170.181 221.665,170.000 221.113,170.000 220.576 C 170.000 220.039,169.820 219.600,169.600 219.600 C 169.380 219.600,169.200 219.240,169.200 218.800 C 169.200 218.360,169.020 218.000,168.800 218.000 C 168.580 218.000,168.400 217.659,168.400 217.243 C 168.400 216.826,168.133 216.383,167.807 216.258 C 167.469 216.128,167.315 215.765,167.450 215.415 C 167.579 215.077,167.486 214.800,167.243 214.800 C 166.999 214.800,166.800 214.628,166.800 214.418 C 166.800 213.614,164.947 211.351,164.431 211.523 C 164.112 211.629,164.001 211.522,164.161 211.263 C 164.523 210.677,163.228 208.735,162.694 209.065 C 162.465 209.207,162.390 209.140,162.529 208.915 C 162.668 208.691,162.383 208.168,161.897 207.753 C 161.025 207.010,161.021 207.010,161.574 207.800 C 161.883 208.240,161.475 207.892,160.668 207.027 C 159.860 206.162,159.200 205.678,159.200 205.951 C 159.200 206.224,159.017 206.334,158.793 206.196 C 158.570 206.058,158.498 205.765,158.634 205.545 C 158.769 205.326,158.504 205.048,158.045 204.928 C 157.585 204.807,157.308 204.550,157.428 204.355 C 157.549 204.160,157.176 204.000,156.600 204.000 C 155.996 204.000,155.659 203.829,155.803 203.595 C 155.942 203.370,155.508 203.082,154.827 202.945 C 154.152 202.810,153.600 202.453,153.600 202.150 C 153.600 201.806,153.152 201.600,152.400 201.600 C 151.740 201.600,151.200 201.440,151.200 201.245 C 151.200 200.892,149.941 200.551,147.100 200.135 C 146.275 200.015,145.600 199.733,145.600 199.509 C 145.600 199.273,145.347 199.312,145.000 199.600 C 144.670 199.874,144.400 199.921,144.400 199.705 C 144.400 199.467,142.103 199.293,138.600 199.265 C 135.056 199.236,132.800 199.370,132.800 199.609 M255.659 199.701 C 255.423 199.937,254.408 200.100,253.403 200.062 C 252.151 200.014,251.510 200.170,251.361 200.557 C 251.216 200.936,250.746 201.059,249.930 200.930 C 249.125 200.803,248.805 200.884,248.981 201.169 C 249.145 201.434,248.853 201.600,248.224 201.600 C 247.661 201.600,247.200 201.780,247.200 202.000 C 247.200 202.220,246.840 202.400,246.400 202.400 C 245.960 202.400,245.645 202.625,245.700 202.900 C 245.763 203.215,245.450 203.351,244.856 203.267 C 244.257 203.183,244.010 203.293,244.180 203.567 C 244.413 203.945,243.640 204.196,242.700 204.047 C 242.535 204.021,242.400 204.179,242.400 204.398 C 242.400 204.617,241.596 205.174,240.613 205.636 C 239.630 206.098,238.865 206.621,238.913 206.798 C 238.961 206.975,238.910 207.093,238.799 207.060 C 238.277 206.904,235.596 209.811,235.791 210.321 C 235.938 210.705,235.813 210.814,235.405 210.657 C 234.870 210.452,234.624 210.831,234.745 211.676 C 234.766 211.827,234.417 212.067,233.970 212.210 C 233.522 212.352,233.224 212.671,233.306 212.919 C 233.389 213.168,233.039 213.758,232.528 214.231 C 232.018 214.705,231.600 215.386,231.600 215.746 C 231.600 216.106,231.399 216.400,231.153 216.400 C 230.904 216.400,230.799 216.753,230.916 217.200 C 231.048 217.706,230.928 218.000,230.589 218.000 C 230.246 218.000,230.067 218.459,230.090 219.279 C 230.110 219.982,229.917 220.628,229.661 220.713 C 229.405 220.798,229.296 221.031,229.418 221.230 C 229.541 221.429,229.379 222.178,229.057 222.896 C 228.422 224.313,228.317 232.963,228.924 233.900 C 229.111 234.189,229.068 234.400,228.824 234.400 C 228.267 234.400,228.273 236.291,228.831 236.477 C 229.068 236.556,229.283 237.426,229.309 238.410 C 229.334 239.395,229.499 240.300,229.676 240.422 C 229.852 240.545,230.036 241.130,230.085 241.722 C 230.134 242.315,230.315 242.800,230.487 242.800 C 230.659 242.800,230.800 243.138,230.800 243.551 C 230.800 243.964,231.059 244.517,231.376 244.780 C 231.693 245.043,231.854 245.515,231.733 245.829 C 231.603 246.169,231.760 246.400,232.120 246.400 C 232.528 246.400,232.657 246.660,232.516 247.200 C 232.399 247.647,232.504 248.000,232.753 248.000 C 232.999 248.000,233.200 248.251,233.200 248.558 C 233.200 248.865,233.647 249.540,234.193 250.058 C 234.739 250.576,235.189 251.215,235.193 251.477 C 235.197 251.740,235.559 252.206,235.997 252.513 C 236.436 252.820,236.676 253.191,236.531 253.336 C 236.386 253.481,236.597 253.600,237.000 253.600 C 237.403 253.600,237.614 253.719,237.469 253.864 C 237.324 254.010,237.609 254.328,238.102 254.571 C 238.596 254.815,239.180 255.424,239.400 255.924 C 239.620 256.424,240.205 256.935,240.700 257.060 C 241.195 257.185,241.600 257.537,241.600 257.843 C 241.600 258.150,241.894 258.400,242.253 258.400 C 242.612 258.400,243.224 258.766,243.612 259.214 C 244.000 259.661,244.471 260.000,244.659 259.966 C 245.474 259.820,246.028 260.031,245.800 260.400 C 245.664 260.620,245.836 260.800,246.182 260.800 C 246.896 260.800,248.461 261.606,248.878 262.188 C 249.031 262.402,249.287 262.446,249.446 262.287 C 249.606 262.128,250.111 262.229,250.568 262.513 C 251.026 262.797,252.030 263.085,252.800 263.155 C 253.570 263.224,254.290 263.414,254.400 263.578 C 254.670 263.981,268.800 263.923,268.800 263.519 C 268.800 263.343,269.419 263.200,270.176 263.200 C 270.933 263.200,271.664 263.020,271.800 262.800 C 271.936 262.580,272.499 262.400,273.052 262.400 C 273.605 262.400,274.337 262.120,274.680 261.777 C 275.023 261.434,275.550 261.249,275.852 261.364 C 276.153 261.480,276.400 261.401,276.400 261.187 C 276.400 260.974,276.636 260.800,276.925 260.800 C 277.213 260.800,277.798 260.485,278.225 260.100 C 278.651 259.715,279.489 259.148,280.086 258.840 C 280.684 258.532,281.078 258.127,280.963 257.940 C 280.847 257.753,281.033 257.600,281.376 257.600 C 281.719 257.600,282.000 257.465,282.000 257.300 C 282.001 256.993,283.567 255.320,285.007 254.089 C 285.450 253.710,286.003 252.860,286.235 252.200 C 286.468 251.540,286.892 251.052,287.178 251.116 C 287.497 251.188,287.608 250.999,287.466 250.627 C 287.338 250.294,287.451 249.881,287.717 249.711 C 288.429 249.253,289.200 247.731,289.200 246.782 C 289.200 246.326,289.380 246.064,289.600 246.200 C 289.826 246.340,290.000 246.012,290.000 245.447 C 290.000 244.897,290.180 244.336,290.400 244.200 C 290.620 244.064,290.800 243.513,290.800 242.976 C 290.800 242.439,290.980 242.000,291.200 242.000 C 291.420 242.000,291.600 241.280,291.600 240.400 C 291.600 239.520,291.784 238.800,292.008 238.800 C 292.273 238.800,292.404 235.995,292.382 230.800 C 292.363 226.123,292.193 222.800,291.974 222.800 C 291.768 222.800,291.600 222.428,291.600 221.974 C 291.600 221.519,291.408 220.788,291.173 220.349 C 290.937 219.909,290.730 219.021,290.712 218.375 C 290.693 217.729,290.526 217.200,290.339 217.200 C 290.153 217.200,290.000 216.840,290.000 216.400 C 290.000 215.960,289.820 215.600,289.600 215.600 C 289.380 215.600,289.200 215.240,289.200 214.800 C 289.200 214.360,289.020 214.000,288.800 214.000 C 288.580 214.000,288.394 213.685,288.387 213.300 C 288.372 212.435,287.415 211.118,287.060 211.473 C 286.917 211.616,286.794 211.388,286.787 210.967 C 286.770 209.913,285.917 208.890,285.244 209.117 C 284.905 209.231,284.798 209.127,284.970 208.849 C 285.124 208.599,284.970 208.112,284.626 207.768 C 284.281 207.424,284.000 207.259,284.000 207.400 C 284.000 207.541,283.730 207.387,283.400 207.057 C 283.070 206.727,282.800 206.254,282.800 206.005 C 282.800 205.756,282.620 205.664,282.400 205.800 C 282.180 205.936,282.000 205.767,282.000 205.424 C 282.000 205.081,281.828 204.800,281.618 204.800 C 280.983 204.800,278.415 202.918,278.684 202.650 C 278.821 202.512,278.543 202.400,278.067 202.400 C 277.590 202.400,277.200 202.212,277.200 201.982 C 277.200 201.753,276.975 201.594,276.700 201.630 C 275.752 201.753,275.153 201.599,275.349 201.283 C 275.456 201.109,275.168 200.938,274.708 200.903 C 274.248 200.868,273.766 200.696,273.636 200.520 C 273.506 200.344,272.795 200.161,272.056 200.113 C 271.317 200.065,270.507 199.867,270.256 199.673 C 269.579 199.151,256.183 199.177,255.659 199.701 M148.088 293.672 C 147.855 293.905,146.934 294.085,146.040 294.073 C 145.147 294.060,144.312 294.219,144.184 294.425 C 144.057 294.631,143.609 294.800,143.189 294.800 C 142.672 294.800,142.500 294.995,142.657 295.405 C 142.823 295.836,142.706 295.939,142.248 295.763 C 141.858 295.613,141.510 295.768,141.361 296.158 C 141.225 296.511,140.941 296.800,140.729 296.800 C 140.178 296.800,139.485 297.613,138.853 299.000 C 138.553 299.660,138.148 300.513,137.953 300.895 C 137.759 301.277,137.600 302.121,137.600 302.771 C 137.600 303.421,137.420 304.064,137.200 304.200 C 136.979 304.337,136.800 306.145,136.800 308.247 C 136.800 310.679,136.944 311.958,137.200 311.800 C 137.445 311.649,137.603 312.298,137.609 313.476 C 137.615 314.767,137.875 315.729,138.400 316.400 C 138.830 316.950,139.186 317.704,139.191 318.076 C 139.196 318.448,139.380 318.864,139.600 319.000 C 139.820 319.136,140.000 319.510,140.000 319.831 C 140.000 320.497,142.648 323.200,143.301 323.200 C 143.539 323.200,143.622 323.311,143.486 323.448 C 143.190 323.744,144.173 324.800,144.744 324.800 C 144.965 324.800,145.261 325.163,145.402 325.606 C 145.543 326.049,145.813 326.316,146.003 326.198 C 146.193 326.081,146.773 326.393,147.292 326.892 C 147.812 327.392,148.498 327.859,148.818 327.931 C 149.138 328.004,149.940 328.473,150.600 328.974 C 152.173 330.168,155.198 331.701,155.206 331.308 C 155.209 331.139,155.358 331.229,155.536 331.509 C 155.713 331.790,156.282 332.100,156.800 332.200 C 157.318 332.300,157.887 332.610,158.064 332.891 C 158.242 333.171,158.391 333.244,158.394 333.054 C 158.397 332.864,158.805 332.971,159.300 333.292 C 159.795 333.612,160.605 333.843,161.100 333.804 C 161.652 333.761,162.000 333.958,162.000 334.313 C 162.000 334.718,162.306 334.835,163.010 334.700 C 163.643 334.579,164.142 334.724,164.346 335.090 C 164.533 335.423,165.085 335.613,165.636 335.533 C 166.166 335.456,166.819 335.665,167.087 335.997 C 167.425 336.415,167.578 336.447,167.587 336.100 C 167.594 335.825,167.791 335.600,168.024 335.600 C 168.257 335.600,168.330 335.789,168.187 336.021 C 168.023 336.287,168.346 336.397,169.064 336.321 C 169.858 336.236,170.165 336.365,170.084 336.747 C 170.002 337.136,170.239 337.227,170.900 337.061 C 171.412 336.932,172.298 337.070,172.869 337.366 C 173.440 337.662,174.661 337.915,175.583 337.928 C 176.505 337.940,177.470 338.119,177.729 338.324 C 177.988 338.529,179.259 338.703,180.553 338.710 C 181.847 338.718,183.017 338.879,183.153 339.068 C 183.289 339.258,185.109 339.472,187.199 339.543 C 189.288 339.614,191.088 339.811,191.199 339.980 C 191.475 340.403,209.668 340.281,210.336 339.852 C 210.631 339.663,212.521 339.507,214.536 339.506 C 216.551 339.506,218.308 339.334,218.440 339.125 C 218.573 338.916,219.743 338.729,221.040 338.708 C 222.338 338.688,223.516 338.496,223.657 338.282 C 223.798 338.067,224.698 337.866,225.657 337.833 C 226.616 337.801,227.760 337.580,228.200 337.341 C 228.640 337.103,229.246 336.996,229.546 337.103 C 229.847 337.210,230.249 337.051,230.440 336.749 C 230.662 336.398,230.790 336.369,230.794 336.669 C 230.798 337.001,231.151 336.963,231.995 336.543 C 232.652 336.215,233.377 336.062,233.605 336.203 C 233.833 336.344,233.970 336.236,233.910 335.963 C 233.839 335.643,234.348 335.441,235.337 335.396 C 236.183 335.358,237.007 335.112,237.169 334.850 C 237.331 334.587,237.741 334.479,238.080 334.609 C 238.427 334.742,238.793 334.595,238.917 334.272 C 239.064 333.889,239.499 333.768,240.228 333.907 C 240.984 334.052,241.232 333.976,241.036 333.658 C 240.880 333.406,240.988 333.179,241.276 333.154 C 241.564 333.128,241.980 333.066,242.200 333.015 C 242.420 332.964,242.836 332.894,243.124 332.861 C 243.412 332.827,243.519 332.592,243.362 332.338 C 243.204 332.082,243.250 331.984,243.467 332.118 C 243.682 332.250,244.339 332.109,244.929 331.803 C 245.518 331.498,246.006 331.372,246.013 331.524 C 246.020 331.676,246.290 331.451,246.613 331.024 C 246.936 330.596,247.200 330.376,247.200 330.534 C 247.200 330.692,247.740 330.541,248.400 330.200 C 249.060 329.859,249.600 329.483,249.600 329.366 C 249.600 329.249,249.375 329.269,249.100 329.411 C 248.825 329.553,249.050 329.298,249.600 328.844 C 250.150 328.389,250.827 328.014,251.105 328.009 C 252.247 327.989,256.190 324.723,255.684 324.217 C 255.564 324.098,255.672 324.000,255.923 324.000 C 256.591 324.000,260.000 320.480,260.000 319.789 C 260.000 319.465,260.135 319.199,260.300 319.197 C 260.706 319.193,261.600 317.214,261.600 316.320 C 261.600 315.924,261.780 315.600,262.000 315.600 C 262.220 315.600,262.400 315.049,262.400 314.376 C 262.400 313.703,262.561 313.252,262.758 313.374 C 262.962 313.500,263.142 311.358,263.176 308.432 C 263.212 305.216,263.077 303.171,262.817 303.011 C 262.588 302.869,262.400 302.211,262.400 301.548 C 262.400 300.885,262.128 300.071,261.796 299.739 C 261.464 299.407,261.295 298.970,261.420 298.768 C 261.545 298.565,261.457 298.400,261.224 298.400 C 260.991 298.400,260.800 298.207,260.800 297.971 C 260.800 297.388,259.770 296.400,259.162 296.400 C 258.890 296.400,258.778 296.289,258.914 296.152 C 259.328 295.739,258.021 294.706,257.390 294.949 C 257.042 295.082,256.800 294.943,256.800 294.610 C 256.800 294.257,256.494 294.105,255.982 294.203 C 254.965 294.399,253.933 294.032,254.216 293.575 C 254.535 293.057,244.825 293.238,244.269 293.759 C 244.011 294.002,242.990 294.200,242.000 294.200 C 240.867 294.200,240.232 294.369,240.286 294.657 C 240.341 294.953,239.801 295.076,238.755 295.005 C 237.712 294.934,237.068 295.080,236.939 295.415 C 236.818 295.729,236.334 295.863,235.720 295.751 C 235.159 295.649,234.408 295.821,234.050 296.133 C 233.693 296.445,233.074 296.647,232.675 296.582 C 232.277 296.517,231.860 296.699,231.749 296.988 C 231.633 297.292,231.206 297.422,230.733 297.298 C 230.285 297.181,229.802 297.255,229.659 297.463 C 229.284 298.011,226.701 299.154,225.999 299.084 C 225.118 298.996,222.000 300.071,222.000 300.463 C 222.000 300.648,221.561 300.800,221.024 300.800 C 220.487 300.800,219.936 300.980,219.800 301.200 C 219.664 301.420,219.203 301.600,218.776 301.600 C 218.349 301.600,218.000 301.780,218.000 302.000 C 218.000 302.220,217.460 302.400,216.800 302.400 C 216.140 302.400,215.600 302.580,215.600 302.800 C 215.600 303.020,215.228 303.200,214.774 303.200 C 214.319 303.200,213.630 303.370,213.243 303.577 C 212.855 303.784,212.102 304.014,211.569 304.087 C 211.036 304.160,210.373 304.363,210.095 304.537 C 209.817 304.711,209.052 304.869,208.395 304.888 C 207.738 304.906,207.200 305.074,207.200 305.261 C 207.200 305.447,206.300 305.600,205.200 305.600 C 204.100 305.600,203.200 305.780,203.200 306.000 C 203.200 306.229,202.000 306.400,200.400 306.400 C 198.860 306.400,197.600 306.254,197.600 306.075 C 197.600 305.896,196.745 305.706,195.700 305.653 C 194.655 305.600,193.740 305.387,193.667 305.179 C 193.593 304.970,192.828 304.800,191.967 304.800 C 191.105 304.800,190.400 304.620,190.400 304.400 C 190.400 304.180,189.781 304.000,189.024 304.000 C 188.267 304.000,187.553 303.848,187.438 303.661 C 187.323 303.475,186.641 303.306,185.922 303.285 C 185.204 303.265,184.552 303.057,184.475 302.824 C 184.397 302.591,183.808 302.400,183.167 302.400 C 182.525 302.400,182.000 302.220,182.000 302.000 C 182.000 301.780,181.640 301.600,181.200 301.600 C 180.760 301.600,180.400 301.420,180.400 301.200 C 180.400 300.980,179.860 300.800,179.200 300.800 C 178.540 300.800,178.000 300.623,178.000 300.408 C 178.000 300.192,177.505 299.897,176.900 299.752 C 176.295 299.608,175.583 299.319,175.318 299.110 C 175.052 298.902,174.636 298.854,174.392 299.005 C 174.149 299.155,173.636 298.994,173.252 298.647 C 172.869 298.300,172.160 298.092,171.677 298.185 C 171.097 298.297,170.800 298.156,170.800 297.769 C 170.800 297.360,170.493 297.240,169.779 297.370 C 169.136 297.486,168.678 297.348,168.544 296.997 C 168.407 296.641,167.845 296.477,166.990 296.545 C 166.223 296.605,165.682 296.471,165.725 296.232 C 165.768 295.994,165.080 295.821,164.126 295.830 C 163.159 295.840,162.483 295.668,162.526 295.423 C 162.568 295.179,161.893 295.007,160.928 295.016 C 160.006 295.025,159.288 294.849,159.328 294.625 C 159.370 294.385,158.277 294.201,156.665 294.176 C 154.775 294.146,153.820 293.958,153.577 293.566 C 153.296 293.114,153.069 293.096,152.455 293.476 C 152.032 293.739,151.582 293.849,151.456 293.722 C 151.020 293.286,148.511 293.249,148.088 293.672 " stroke="none" fill="#342c2c" fill-rule="evenodd"/><path id="path1" d="M220.900 63.076 C 221.285 63.176,221.915 63.176,222.300 63.076 C 222.685 62.975,222.370 62.893,221.600 62.893 C 220.830 62.893,220.515 62.975,220.900 63.076 M376.574 205.958 C 376.723 206.199,377.216 206.595,377.671 206.838 C 378.262 207.154,378.420 207.156,378.226 206.842 C 378.077 206.601,377.584 206.205,377.129 205.962 C 376.538 205.646,376.380 205.644,376.574 205.958 M259.907 263.890 C 260.626 263.979,261.706 263.977,262.307 263.886 C 262.908 263.795,262.320 263.722,261.000 263.724 C 259.680 263.726,259.188 263.801,259.907 263.890 M227.000 298.614 C 225.995 299.098,225.963 299.153,226.800 298.951 C 227.350 298.819,227.971 298.550,228.180 298.355 C 228.698 297.871,228.414 297.933,227.000 298.614 M199.900 340.282 C 200.395 340.378,201.205 340.378,201.700 340.282 C 202.195 340.187,201.790 340.109,200.800 340.109 C 199.810 340.109,199.405 340.187,199.900 340.282 " stroke="none" fill="#382c2c" fill-rule="evenodd"/><path id="path2" d="M220.900 63.076 C 221.285 63.176,221.915 63.176,222.300 63.076 C 222.685 62.975,222.370 62.893,221.600 62.893 C 220.830 62.893,220.515 62.975,220.900 63.076 M376.574 205.958 C 376.723 206.199,377.216 206.595,377.671 206.838 C 378.262 207.154,378.420 207.156,378.226 206.842 C 378.077 206.601,377.584 206.205,377.129 205.962 C 376.538 205.646,376.380 205.644,376.574 205.958 M259.907 263.890 C 260.626 263.979,261.706 263.977,262.307 263.886 C 262.908 263.795,262.320 263.722,261.000 263.724 C 259.680 263.726,259.188 263.801,259.907 263.890 M227.000 298.614 C 225.995 299.098,225.963 299.153,226.800 298.951 C 227.350 298.819,227.971 298.550,228.180 298.355 C 228.698 297.871,228.414 297.933,227.000 298.614 M199.900 340.282 C 200.395 340.378,201.205 340.378,201.700 340.282 C 202.195 340.187,201.790 340.109,200.800 340.109 C 199.810 340.109,199.405 340.187,199.900 340.282 " stroke="none" fill="#382c2c" fill-rule="evenodd"/><path id="path3" d="M220.900 63.076 C 221.285 63.176,221.915 63.176,222.300 63.076 C 222.685 62.975,222.370 62.893,221.600 62.893 C 220.830 62.893,220.515 62.975,220.900 63.076 M376.574 205.958 C 376.723 206.199,377.216 206.595,377.671 206.838 C 378.262 207.154,378.420 207.156,378.226 206.842 C 378.077 206.601,377.584 206.205,377.129 205.962 C 376.538 205.646,376.380 205.644,376.574 205.958 M259.907 263.890 C 260.626 263.979,261.706 263.977,262.307 263.886 C 262.908 263.795,262.320 263.722,261.000 263.724 C 259.680 263.726,259.188 263.801,259.907 263.890 M227.000 298.614 C 225.995 299.098,225.963 299.153,226.800 298.951 C 227.350 298.819,227.971 298.550,228.180 298.355 C 228.698 297.871,228.414 297.933,227.000 298.614 M199.900 340.282 C 200.395 340.378,201.205 340.378,201.700 340.282 C 202.195 340.187,201.790 340.109,200.800 340.109 C 199.810 340.109,199.405 340.187,199.900 340.282 " stroke="none" fill="#382c2c" fill-rule="evenodd"/><path id="path4" d="M220.900 63.076 C 221.285 63.176,221.915 63.176,222.300 63.076 C 222.685 62.975,222.370 62.893,221.600 62.893 C 220.830 62.893,220.515 62.975,220.900 63.076 M376.574 205.958 C 376.723 206.199,377.216 206.595,377.671 206.838 C 378.262 207.154,378.420 207.156,378.226 206.842 C 378.077 206.601,377.584 206.205,377.129 205.962 C 376.538 205.646,376.380 205.644,376.574 205.958 M259.907 263.890 C 260.626 263.979,261.706 263.977,262.307 263.886 C 262.908 263.795,262.320 263.722,261.000 263.724 C 259.680 263.726,259.188 263.801,259.907 263.890 M227.000 298.614 C 225.995 299.098,225.963 299.153,226.800 298.951 C 227.350 298.819,227.971 298.550,228.180 298.355 C 228.698 297.871,228.414 297.933,227.000 298.614 M199.900 340.282 C 200.395 340.378,201.205 340.378,201.700 340.282 C 202.195 340.187,201.790 340.109,200.800 340.109 C 199.810 340.109,199.405 340.187,199.900 340.282 " stroke="none" fill="#382c2c" fill-rule="evenodd"/></g></svg>